<?xml version="1.0" encoding="utf-8"?>
<!-- Generator: Adobe Illustrator 23.0.1, SVG Export Plug-In . SVG Version: 6.00 Build 0)  -->
<svg version="1.1" id="Layer_1" xmlns="http://www.w3.org/2000/svg" xmlns:xlink="http://www.w3.org/1999/xlink" x="0px" y="0px"
	 viewBox="0 0 15.5 16.5" style="enable-background:new 0 0 15.5 16.5;" xml:space="preserve">
<style type="text/css">
	.st0{fill:#DE9F26;}
	.st1{fill:none;stroke:#DE9F26;stroke-width:0.25;stroke-miterlimit:10;}
</style>
<title>arrows</title>
<g>
	<g id="Layer_1-2">
		<path class="st0" d="M8.2,16.4c-0.1,0-0.2,0-0.3-0.1c-0.2-0.2-0.2-0.4,0-0.6l6.6-7.7L8,0.8C7.8,0.7,7.8,0.4,8,0.3c0,0,0,0,0,0
			c0.2-0.1,0.4-0.1,0.6,0l6.8,7.5c0.1,0.1,0.1,0.4,0,0.5l-6.8,8C8.4,16.4,8.3,16.4,8.2,16.4"/>
		<path class="st1" d="M7.9,16.3c-0.2-0.2-0.2-0.4,0-0.6l6.6-7.7L8,0.8C7.8,0.7,7.8,0.4,8,0.3c0,0,0,0,0,0c0.2-0.1,0.4-0.1,0.6,0
			l6.8,7.5c0.1,0.1,0.1,0.4,0,0.5l-6.8,8c-0.1,0.1-0.2,0.1-0.3,0.1C8.1,16.4,8,16.4,7.9,16.3z"/>
		<path class="st0" d="M0.5,16.4c-0.1,0-0.2,0-0.2-0.1c-0.2-0.2-0.2-0.4,0-0.6l6.6-7.7L0.3,0.8c-0.2-0.2-0.2-0.4,0-0.6c0,0,0,0,0,0
			c0.2-0.1,0.4-0.1,0.5,0l6.8,7.5c0.1,0.1,0.1,0.4,0,0.5l-6.8,8C0.7,16.4,0.6,16.4,0.5,16.4"/>
		<path class="st1" d="M0.2,16.3c-0.2-0.2-0.2-0.4,0-0.6l6.6-7.7L0.3,0.8c-0.2-0.2-0.2-0.4,0-0.6c0,0,0,0,0,0c0.2-0.1,0.4-0.1,0.5,0
			l6.8,7.5c0.1,0.1,0.1,0.4,0,0.5l-6.8,8c-0.1,0.1-0.2,0.1-0.3,0.1C0.4,16.4,0.3,16.4,0.2,16.3z"/>
	</g>
</g>
</svg>
