<svg xmlns="http://www.w3.org/2000/svg" viewBox="0 0 15.51 16.55"><defs><style>.arrow-cls1{fill:#de9f26;}.arrow-cls2{fill:none;stroke:#de9f26;stroke-miterlimit:10;stroke-width:0.25px;}</style></defs><title>arrows</title><g id="Layer_2" data-name="Layer 2"><g id="Layer_1-2" data-name="Layer 1"><path class="arrow-cls1" d="M7.32,16.43a.39.39,0,0,1-.3-.14l-6.8-8a.38.38,0,0,1,0-.52L7,.26a.39.39,0,0,1,.56,0,.39.39,0,0,1,0,.55L1,8.07l6.58,7.71a.39.39,0,0,1,0,.55.35.35,0,0,1-.25.1"/><path class="arrow-cls2" d="M7.32,16.43a.39.39,0,0,1-.3-.14l-6.8-8a.38.38,0,0,1,0-.52L7,.26a.39.39,0,0,1,.56,0,.39.39,0,0,1,0,.55L1,8.07l6.58,7.71a.39.39,0,0,1,0,.55A.35.35,0,0,1,7.32,16.43Z"/><path class="arrow-cls1" d="M15,16.43a.41.41,0,0,1-.3-.14l-6.8-8a.4.4,0,0,1,0-.52L14.7.25a.38.38,0,0,1,.55,0,.39.39,0,0,1,0,.55L8.71,8.07l6.58,7.71a.39.39,0,0,1,0,.55.35.35,0,0,1-.25.1"/><path class="arrow-cls2" d="M15,16.43a.41.41,0,0,1-.3-.14l-6.8-8a.4.4,0,0,1,0-.52L14.7.25a.38.38,0,0,1,.55,0,.39.39,0,0,1,0,.55L8.71,8.07l6.58,7.71a.39.39,0,0,1,0,.55A.35.35,0,0,1,15,16.43Z"/></g></g></svg>