<svg xmlns="http://www.w3.org/2000/svg" viewBox="0 0 12.53 12.38"><defs><style>.cls-1{fill:none;stroke:#df9f00;stroke-miterlimit:10;stroke-width:0.16px;}</style></defs><title>chat</title><g id="Layer_2" data-name="Layer 2"><g id="Layer_1-2" data-name="Layer 1"><path class="cls-1" d="M3.26,12.3l-.09,0A.24.24,0,0,1,3,12.07V9.55H.31a.23.23,0,0,1-.23-.23v-9A.23.23,0,0,1,.31.08H12.22a.23.23,0,0,1,.23.23v9a.23.23,0,0,1-.23.23H6.35L3.42,12.24A.25.25,0,0,1,3.26,12.3ZM.31.2A.11.11,0,0,0,.2.31v9a.1.1,0,0,0,.11.1H3.09a.07.07,0,0,1,.07.07v2.58a.1.1,0,0,0,.17.08l3-2.71,0,0h5.89a.09.09,0,0,0,.1-.1v-9a.1.1,0,0,0-.1-.11ZM3.43,11.75h0a.06.06,0,0,1,0-.06V9.32a.11.11,0,0,0-.11-.11H.48s-.07,0-.07-.06V.48A.07.07,0,0,1,.48.41H12.05a.07.07,0,0,1,.07.07V9.15s0,.06-.07.06H6.26a.11.11,0,0,0-.07,0l-2.72,2.5ZM.54,9.09H3.26a.23.23,0,0,1,.23.23v2.23l2.62-2.4a.22.22,0,0,1,.15-.06H12V.54H.54Z"/></g></g></svg>