<svg xmlns="http://www.w3.org/2000/svg" viewBox="0 0 61.14 44.84">
    <defs>
        <style>.cls-check-1{fill:#de9f26;}</style>
    </defs>
    <title>check</title>
    <g id="Layer_2" data-name="Layer 2">
        <g id="Layer_1-2" data-name="Layer 1">
            <path class="cls-check-1"
                d="M23.75,28.85l1.57-1.6Q38.52,14.05,51.71.85a2.59,2.59,0,0,1,3.83,0c1.59,1.67,3.26,3.26,4.87,4.9a2.3,2.3,0,0,1,.5,2.7,2.52,2.52,0,0,1-.48.69L51,18.56,32.34,37.21,25.57,44a2.44,2.44,0,0,1-3.75,0l-15.95-16L.8,22.81a2.4,2.4,0,0,1,0-3.57l5-5a2.38,2.38,0,0,1,3.42,0Q14,19,18.68,23.78l4.78,4.8C23.53,28.66,23.61,28.72,23.75,28.85Z" />
        </g>
    </g>
</svg>