<svg xmlns="http://www.w3.org/2000/svg" viewBox="0 0 37.49 37.48">
    <defs>
    </defs>
    <title>edit2</title>
    <g id="Layer_2" data-name="Layer 2">
        <g id="Layer_1-2" data-name="Layer 1">
            <path class="clas-edit-1"
                d="M20.71,8.88l8,7.83c-.24.26-.51.58-.8.87-5.74,5.74-11.45,11.49-17.22,17.18a4.86,4.86,0,0,1-2.18,1.16c-2.29.57-4.61,1-6.92,1.46C.09,37.67-.19,37.38.1,36c.49-2.4.94-4.8,1.48-7.18a3.69,3.69,0,0,1,.85-1.67q8.88-9,17.82-17.84C20.43,9.1,20.63,9,20.71,8.88Z" />
            <path class="clas-edit-1"
                d="M32.57,12.87c-2.54-2.56-5-5-7.32-7.44a1.2,1.2,0,0,1,.05-1.16C26.49,3,27.74,1.74,29,.55a1.71,1.71,0,0,1,2.54,0c1.81,1.76,3.6,3.55,5.35,5.36A1.71,1.71,0,0,1,37,8.4C35.65,9.87,34.19,11.25,32.57,12.87Z" />
        </g>
    </g>
</svg>