<svg xmlns="http://www.w3.org/2000/svg" viewBox="0 0 65.48 65.09"><defs><style>.cls-1{fill:#696d6c;}.cls-1,.cls-2{fill-rule:evenodd;}.cls-2{fill:#de9f26;}</style></defs><title>edit</title><g id="Layer_2" data-name="Layer 2"><g id="Layer_1-2" data-name="Layer 1"><polygon class="cls-1" points="37.92 14.98 17.76 14.98 17.76 26.39 4.64 26.39 4.64 61.24 38.98 61.24 38.98 38.32 43.48 33.81 43.48 60.32 43.48 65.09 0 65.09 0 22.15 12.86 11.14 41.76 11.14 37.92 14.98"/><path class="cls-1" d="M64.82,6.24l-5-5A3.49,3.49,0,0,0,57.67,0h-.53a1.54,1.54,0,0,0-1.33.54l-5,5-31,31a2.33,2.33,0,0,0-.39.8l-2,8.88v.39a2.12,2.12,0,0,0,.41,1.2,1.53,1.53,0,0,0,1.05.4c.14,0,.27-.14.41-.14l8.61-2.24a1.08,1.08,0,0,0,.66-.4L59.65,14.32l4.9-4.9a2.65,2.65,0,0,0,.93-1.86,1.79,1.79,0,0,0-.66-1.32"/><polygon class="cls-2" points="59.26 11.67 53.43 5.71 56.6 2.4 62.44 8.35 59.26 11.67"/><polygon class="cls-2" points="27.71 41.63 23.47 37.39 51.83 8.88 56.2 13.14 27.71 41.63"/><polygon class="cls-2" points="18.7 46.53 21.36 39.77 25.58 44.01 18.7 46.53"/></g></g></svg>