<svg xmlns="http://www.w3.org/2000/svg" viewBox="0 0 10.01 10.01"><defs><style>.cls-1{fill:#283318;}</style></defs><title>facebook</title><g id="Layer_2" data-name="Layer 2"><g id="Layer_1-2" data-name="Layer 1"><path class="cls-1" d="M5,0a5,5,0,1,0,5,5A5,5,0,0,0,5,0ZM6.39,3a.08.08,0,0,1-.07.08h-.6a.26.26,0,0,0-.27.26v.63h.86A.08.08,0,0,1,6.38,4l-.07.89A.08.08,0,0,1,6.23,5H5.45V7.93A.08.08,0,0,1,5.37,8H4.3a.08.08,0,0,1-.08-.08V5H3.68a.07.07,0,0,1-.07-.07V4a.08.08,0,0,1,.07-.08h.54V3.09A1.08,1.08,0,0,1,5.3,2h1a.07.07,0,0,1,.07.07Z"/></g></g></svg>