<svg xmlns="http://www.w3.org/2000/svg" viewBox="0 0 9.95 9.94"><defs><style>.cls-1{fill:#283318;}</style></defs><title>instagram</title><g id="Layer_2" data-name="Layer 2"><g id="Layer_1-2" data-name="Layer 1"><path class="cls-1" d="M5,0a5,5,0,1,0,5,5A5,5,0,0,0,5,0ZM8.13,6.17A1.88,1.88,0,0,1,6.25,8.06H3.76A1.89,1.89,0,0,1,1.87,6.17V3.69A1.89,1.89,0,0,1,3.76,1.8H6.25A1.88,1.88,0,0,1,8.13,3.69Z"/><path class="cls-1" d="M6.25,2.39H3.76a1.29,1.29,0,0,0-1.29,1.3V6.17a1.29,1.29,0,0,0,1.29,1.3H6.25a1.3,1.3,0,0,0,1.29-1.3V3.69A1.3,1.3,0,0,0,6.25,2.39ZM5,6.52A1.55,1.55,0,1,1,6.56,5,1.55,1.55,0,0,1,5,6.52ZM6.65,3.69A.37.37,0,1,1,7,3.32.38.38,0,0,1,6.65,3.69Z"/><path class="cls-1" d="M6,5A1,1,0,1,1,5,4,1,1,0,0,1,6,5Z"/></g></g></svg>