<svg xmlns="http://www.w3.org/2000/svg" viewBox="0 0 8.33 8.33"><defs><style>.cls-1{fill:#283318;}.cls-2{fill:none;stroke:#283318;stroke-miterlimit:10;stroke-width:0.5px;}</style></defs><title>location</title><g id="Layer_2" data-name="Layer 2"><g id="Layer_1-2" data-name="Layer 1"><path class="cls-1" d="M4.16,1.62a2,2,0,0,0-2,2,3.49,3.49,0,0,0,.94,2.26,4.84,4.84,0,0,0,.93.84.16.16,0,0,0,.09,0,.17.17,0,0,0,.1,0,4.84,4.84,0,0,0,.93-.84,3.49,3.49,0,0,0,.94-2.26,2,2,0,0,0-2-2m0,4.7a3.79,3.79,0,0,1-1.6-2.74,1.61,1.61,0,1,1,3.21,0A3.76,3.76,0,0,1,4.16,6.32"/><path class="cls-1" d="M4.17,2.8a.78.78,0,1,0,.77.78.78.78,0,0,0-.77-.78M4.17,4a.43.43,0,0,1-.43-.43.43.43,0,1,1,.85,0A.42.42,0,0,1,4.17,4"/><path class="cls-1" d="M4.17,8A3.88,3.88,0,1,1,8,4.16,3.88,3.88,0,0,1,4.17,8M4.17.5A3.67,3.67,0,1,0,7.83,4.16,3.66,3.66,0,0,0,4.17.5"/><path class="cls-2" d="M4.17,8A3.88,3.88,0,1,1,8,4.16,3.88,3.88,0,0,1,4.17,8ZM4.17.5A3.67,3.67,0,1,0,7.83,4.16,3.66,3.66,0,0,0,4.17.5Z"/><path class="cls-1" d="M4.17,8.08A3.92,3.92,0,1,1,8.08,4.16,3.93,3.93,0,0,1,4.17,8.08m0-7.75A3.84,3.84,0,1,0,8,4.16,3.84,3.84,0,0,0,4.17.33m0,7.54a3.71,3.71,0,1,1,3.7-3.71,3.71,3.71,0,0,1-3.7,3.71m0-7.33A3.63,3.63,0,1,0,7.79,4.16,3.63,3.63,0,0,0,4.17.54"/><path class="cls-2" d="M4.17,8.08A3.92,3.92,0,1,1,8.08,4.16,3.93,3.93,0,0,1,4.17,8.08Zm0-7.75A3.84,3.84,0,1,0,8,4.16,3.84,3.84,0,0,0,4.17.33Zm0,7.54a3.71,3.71,0,1,1,3.7-3.71A3.71,3.71,0,0,1,4.17,7.87Zm0-7.33A3.63,3.63,0,1,0,7.79,4.16,3.63,3.63,0,0,0,4.17.54Z"/></g></g></svg>