<svg xmlns="http://www.w3.org/2000/svg" xmlns:xlink="http://www.w3.org/1999/xlink" viewBox="0 0 185.46 198.92"><defs><style>.cls-1{isolation:isolate;}.cls-2{fill:#de9f26;}.cls-13,.cls-14,.cls-15,.cls-16,.cls-18,.cls-19,.cls-20,.cls-21,.cls-22,.cls-23,.cls-25,.cls-26,.cls-27,.cls-28,.cls-29,.cls-3,.cls-30,.cls-31,.cls-32,.cls-33,.cls-34,.cls-35,.cls-36,.cls-37,.cls-38,.cls-39,.cls-4,.cls-40,.cls-41,.cls-42,.cls-43,.cls-44,.cls-45,.cls-46,.cls-5,.cls-6,.cls-7,.cls-8,.cls-9{mix-blend-mode:multiply;}.cls-3{fill:url(#radial-gradient);}.cls-4{fill:url(#radial-gradient-2);}.cls-5{fill:url(#radial-gradient-3);}.cls-6{fill:url(#linear-gradient);}.cls-7{fill:url(#radial-gradient-4);}.cls-8{fill:url(#radial-gradient-5);}.cls-9{fill:url(#radial-gradient-6);}.cls-10{fill:url(#radial-gradient-7);}.cls-11{fill:url(#radial-gradient-8);}.cls-12{fill:url(#radial-gradient-9);}.cls-13{fill:url(#radial-gradient-10);}.cls-14{fill:url(#radial-gradient-11);}.cls-15{fill:url(#linear-gradient-2);}.cls-16{fill:url(#radial-gradient-12);}.cls-17{fill:url(#linear-gradient-3);}.cls-18{fill:url(#linear-gradient-4);}.cls-19{fill:url(#linear-gradient-5);}.cls-20{fill:url(#radial-gradient-13);}.cls-21{fill:url(#linear-gradient-6);}.cls-22{fill:url(#linear-gradient-7);}.cls-23{fill:url(#radial-gradient-14);}.cls-24{fill:url(#radial-gradient-15);}.cls-25{fill:url(#radial-gradient-16);}.cls-26{fill:url(#radial-gradient-17);}.cls-27{fill:url(#radial-gradient-18);}.cls-28{fill:url(#radial-gradient-19);}.cls-29{fill:url(#radial-gradient-20);}.cls-30{fill:url(#radial-gradient-21);}.cls-31{fill:url(#radial-gradient-22);}.cls-32{fill:url(#radial-gradient-23);}.cls-33{fill:url(#radial-gradient-24);}.cls-34{fill:url(#radial-gradient-25);}.cls-35{fill:url(#radial-gradient-26);}.cls-36{fill:url(#radial-gradient-27);}.cls-37{fill:url(#radial-gradient-28);}.cls-38{fill:url(#radial-gradient-29);}.cls-39{fill:url(#radial-gradient-30);}.cls-40{fill:url(#radial-gradient-31);}.cls-41{fill:url(#radial-gradient-32);}.cls-42{fill:url(#radial-gradient-33);}.cls-43{fill:url(#radial-gradient-34);}.cls-44{fill:url(#radial-gradient-35);}.cls-45{fill:url(#radial-gradient-36);}.cls-46{fill:url(#radial-gradient-37);}</style><radialGradient id="radial-gradient" cx="115.78" cy="135.48" r="18.88" gradientUnits="userSpaceOnUse"><stop offset="0.09"/><stop offset="0.22" stop-color="#444"/><stop offset="0.34" stop-color="#818181"/><stop offset="0.45" stop-color="#b1b1b2"/><stop offset="0.55" stop-color="#d4d4d5"/><stop offset="0.63" stop-color="#e9e9ea"/><stop offset="0.68" stop-color="#f1f1f2"/><stop offset="1" stop-color="#fff"/></radialGradient><radialGradient id="radial-gradient-2" cx="115.54" cy="138.52" r="0.07" gradientTransform="matrix(-0.94, -0.33, 0.31, -0.87, 181.71, 297.68)" gradientUnits="userSpaceOnUse"><stop offset="0.58"/><stop offset="0.64" stop-color="#fff"/></radialGradient><radialGradient id="radial-gradient-3" cx="172.61" cy="85.65" r="9.11" gradientUnits="userSpaceOnUse"><stop offset="0.69" stop-color="#fff"/><stop offset="1"/></radialGradient><linearGradient id="linear-gradient" x1="162.63" y1="91.51" x2="169.7" y2="88.68" gradientUnits="userSpaceOnUse"><stop offset="0.61" stop-color="#fff"/><stop offset="0.64" stop-color="#f3f3f3"/><stop offset="0.7" stop-color="#d3d3d3"/><stop offset="0.77" stop-color="#a0a0a0"/><stop offset="0.86" stop-color="#595959"/><stop offset="0.97"/></linearGradient><radialGradient id="radial-gradient-4" cx="163.16" cy="90.41" r="9.79" gradientTransform="translate(336.33 16.63) rotate(127.02) scale(1 1.04)" gradientUnits="userSpaceOnUse"><stop offset="0.73" stop-color="#fff"/><stop offset="0.76" stop-color="#f3f3f3"/><stop offset="0.8" stop-color="#d3d3d3"/><stop offset="0.86" stop-color="#a0a0a0"/><stop offset="0.92" stop-color="#595959"/><stop offset="1"/></radialGradient><radialGradient id="radial-gradient-5" cx="145.52" cy="95.86" r="17.63" gradientTransform="matrix(-0.99, 0.14, -0.13, -0.89, 301.74, 160.58)" gradientUnits="userSpaceOnUse"><stop offset="0.63" stop-color="#fff"/><stop offset="0.64" stop-color="#f3f3f3"/><stop offset="0.66" stop-color="#d3d3d3"/><stop offset="0.68" stop-color="#a0a0a0"/><stop offset="0.7" stop-color="#595959"/><stop offset="0.73"/></radialGradient><radialGradient id="radial-gradient-6" cx="114.39" cy="80.39" r="33.72" gradientUnits="userSpaceOnUse"><stop offset="0.6" stop-color="#fff"/><stop offset="0.61" stop-color="#f3f3f3"/><stop offset="0.63" stop-color="#d3d3d3"/><stop offset="0.65" stop-color="#a0a0a0"/><stop offset="0.68" stop-color="#595959"/><stop offset="0.71"/></radialGradient><radialGradient id="radial-gradient-7" cx="38.03" cy="187.1" r="0.49" gradientTransform="translate(216.01 273.67) rotate(127.02) scale(1 1.04)" xlink:href="#radial-gradient-4"/><radialGradient id="radial-gradient-8" cx="39.99" cy="187.51" r="1.04" gradientTransform="translate(219.48 272.77) rotate(127.02) scale(1 1.04)" xlink:href="#radial-gradient-4"/><radialGradient id="radial-gradient-9" cx="50.47" cy="189.06" r="1.35" gradientTransform="translate(237.56 266.92) rotate(127.02) scale(1 1.04)" xlink:href="#radial-gradient-4"/><radialGradient id="radial-gradient-10" cx="56.2" cy="130.84" fx="69.06881980013935" fy="100.85815939206445" r="56.36" gradientTransform="matrix(0.36, 0.93, -0.97, 0.38, 163.11, 28.92)" gradientUnits="userSpaceOnUse"><stop offset="0.94" stop-color="#fff"/><stop offset="0.95" stop-color="#f3f3f3"/><stop offset="0.96" stop-color="#d3d3d3"/><stop offset="0.97" stop-color="#a0a0a0"/><stop offset="0.98" stop-color="#595959"/><stop offset="1"/></radialGradient><radialGradient id="radial-gradient-11" cx="171.29" cy="130.39" r="9.48" gradientUnits="userSpaceOnUse"><stop offset="0.73" stop-color="#fff"/><stop offset="1"/></radialGradient><linearGradient id="linear-gradient-2" x1="157.41" y1="136.51" x2="168.44" y2="133.17" xlink:href="#radial-gradient-11"/><radialGradient id="radial-gradient-12" cx="160.07" cy="134.22" r="9.36" gradientUnits="userSpaceOnUse"><stop offset="0.73" stop-color="#fff"/><stop offset="0.75" stop-color="#f9f9f9"/><stop offset="0.79" stop-color="#e7e7e7"/><stop offset="0.82" stop-color="#cbcbcb"/><stop offset="0.87" stop-color="#a3a3a3"/><stop offset="0.92" stop-color="#707070"/><stop offset="0.96" stop-color="#323232"/><stop offset="1"/></radialGradient><linearGradient id="linear-gradient-3" x1="153.14" y1="129.62" x2="153.15" y2="129.62" xlink:href="#radial-gradient-11"/><linearGradient id="linear-gradient-4" x1="141.91" y1="135.08" x2="155.13" y2="134.89" xlink:href="#radial-gradient-11"/><linearGradient id="linear-gradient-5" x1="122.12" y1="124.59" x2="98.99" y2="110.8" gradientUnits="userSpaceOnUse"><stop offset="0.64" stop-color="#fff"/><stop offset="1"/></linearGradient><radialGradient id="radial-gradient-13" cx="98.98" cy="76.72" r="34.14" gradientTransform="translate(203.19 26.22) rotate(122.88) scale(1 0.78)" gradientUnits="userSpaceOnUse"><stop offset="0.38" stop-color="#fff"/><stop offset="0.47" stop-color="#fff"/><stop offset="0.79" stop-color="#fff"/><stop offset="0.81" stop-color="#fafafa"/><stop offset="0.83" stop-color="#ececec"/><stop offset="0.85" stop-color="#d6d6d6"/><stop offset="0.87" stop-color="#b5b5b5"/><stop offset="0.89" stop-color="#8c8c8c"/><stop offset="0.91" stop-color="#5a5a5a"/><stop offset="0.93" stop-color="#1f1f1f"/><stop offset="0.94"/></radialGradient><linearGradient id="linear-gradient-6" x1="96.88" y1="39.42" x2="133.34" y2="65.34" gradientUnits="userSpaceOnUse"><stop offset="0.64" stop-color="#fff"/><stop offset="1"/></linearGradient><linearGradient id="linear-gradient-7" x1="123.62" y1="60.53" x2="127.61" y2="63.38" xlink:href="#linear-gradient-6"/><radialGradient id="radial-gradient-14" cx="134.6" cy="113.43" r="31.8" gradientUnits="userSpaceOnUse"><stop offset="0.84" stop-color="#fff"/><stop offset="1"/></radialGradient><radialGradient id="radial-gradient-15" cx="119.9" cy="81.07" r="1.84" gradientTransform="translate(238.33 14.85) rotate(122.88) scale(1 0.78)" xlink:href="#radial-gradient-13"/><radialGradient id="radial-gradient-16" cx="68.39" cy="58.87" r="69.7" gradientTransform="translate(76.27 -23.24) rotate(61.49) scale(1 0.78)" gradientUnits="userSpaceOnUse"><stop offset="0.25" stop-color="#fff"/><stop offset="0.38" stop-color="#fff"/><stop offset="0.47" stop-color="#fff"/><stop offset="0.88" stop-color="#fff"/><stop offset="0.89" stop-color="#fafafa"/><stop offset="0.9" stop-color="#ececec"/><stop offset="0.92" stop-color="#d6d6d6"/><stop offset="0.94" stop-color="#b5b5b5"/><stop offset="0.96" stop-color="#8c8c8c"/><stop offset="0.97" stop-color="#5a5a5a"/><stop offset="0.99" stop-color="#1f1f1f"/><stop offset="1"/></radialGradient><radialGradient id="radial-gradient-17" cx="124.94" cy="142.19" r="17.9" gradientTransform="matrix(0.35, -0.94, 0.35, 0.13, 31.33, 240.36)" gradientUnits="userSpaceOnUse"><stop offset="0.09"/><stop offset="0.27" stop-color="#444"/><stop offset="0.44" stop-color="#818181"/><stop offset="0.6" stop-color="#b1b1b2"/><stop offset="0.74" stop-color="#d4d4d5"/><stop offset="0.85" stop-color="#e9e9ea"/><stop offset="0.93" stop-color="#f1f1f2"/><stop offset="1" stop-color="#fff"/></radialGradient><radialGradient id="radial-gradient-18" cx="142.58" cy="124.47" r="15.74" gradientTransform="matrix(-0.58, 0.81, -0.57, -0.41, 296.52, 59.13)" gradientUnits="userSpaceOnUse"><stop offset="0.3" stop-color="#fff"/><stop offset="0.78" stop-color="#fff"/><stop offset="1"/></radialGradient><radialGradient id="radial-gradient-19" cx="79.52" cy="137.96" r="68.68" gradientTransform="matrix(-0.58, 0.81, -0.57, -0.41, 204.54, 129.46)" gradientUnits="userSpaceOnUse"><stop offset="0.16" stop-color="#fff"/><stop offset="0.3" stop-color="#fff"/><stop offset="0.85" stop-color="#fff"/><stop offset="1"/></radialGradient><radialGradient id="radial-gradient-20" cx="188.9" cy="143.25" r="18.47" gradientUnits="userSpaceOnUse"><stop offset="0.3" stop-color="#fff"/><stop offset="0.74" stop-color="#fff"/><stop offset="0.77" stop-color="#fbfbfb"/><stop offset="0.79" stop-color="#efefef"/><stop offset="0.82" stop-color="#dadada"/><stop offset="0.85" stop-color="#bdbdbd"/><stop offset="0.87" stop-color="#989898"/><stop offset="0.9" stop-color="#6b6b6b"/><stop offset="0.93" stop-color="#363636"/><stop offset="0.95"/></radialGradient><radialGradient id="radial-gradient-21" cx="188.9" cy="93.73" r="18.47" xlink:href="#radial-gradient-20"/><radialGradient id="radial-gradient-22" cx="170.34" cy="96.2" r="18.47" xlink:href="#radial-gradient-20"/><radialGradient id="radial-gradient-23" cx="170.35" cy="104.17" r="18.47" xlink:href="#radial-gradient-20"/><radialGradient id="radial-gradient-24" cx="170.34" cy="145.77" r="18.47" xlink:href="#radial-gradient-20"/><radialGradient id="radial-gradient-25" cx="151.79" cy="145.77" r="18.47" xlink:href="#radial-gradient-20"/><radialGradient id="radial-gradient-26" cx="170.35" cy="153.74" r="18.47" xlink:href="#radial-gradient-20"/><radialGradient id="radial-gradient-27" cx="150.05" cy="136.25" r="15.23" gradientUnits="userSpaceOnUse"><stop offset="0.88" stop-color="#fff"/><stop offset="1"/></radialGradient><radialGradient id="radial-gradient-28" cx="108.68" cy="102.28" r="18.66" gradientUnits="userSpaceOnUse"><stop offset="0.3" stop-color="#fff"/><stop offset="0.82" stop-color="#fff"/><stop offset="1"/></radialGradient><radialGradient id="radial-gradient-29" cx="145.29" cy="90.93" r="19.47" xlink:href="#radial-gradient-28"/><radialGradient id="radial-gradient-30" cx="159.4" cy="125.26" r="5.75" gradientUnits="userSpaceOnUse"><stop offset="0.49" stop-color="#fff"/><stop offset="0.63" stop-color="#fff"/><stop offset="0.87" stop-color="#fff"/><stop offset="1"/></radialGradient><radialGradient id="radial-gradient-31" cx="155.5" cy="129.62" r="7.89" gradientTransform="translate(276.81 0.31) rotate(104.45) scale(1 0.66)" gradientUnits="userSpaceOnUse"><stop offset="0.19" stop-color="#fff"/><stop offset="0.49" stop-color="#fff"/><stop offset="0.63" stop-color="#fff"/><stop offset="0.85" stop-color="#fff"/><stop offset="1"/></radialGradient><radialGradient id="radial-gradient-32" cx="161.64" cy="113.62" r="14.07" gradientTransform="matrix(0.58, 0.81, -0.53, 0.38, 128.25, -61.29)" xlink:href="#radial-gradient-31"/><radialGradient id="radial-gradient-33" cx="151.39" cy="80.57" r="4.84" gradientTransform="matrix(0.04, -1, 0.5, 0.02, 105.51, 230.35)" gradientUnits="userSpaceOnUse"><stop offset="0.3" stop-color="#fff"/><stop offset="0.52" stop-color="#fff"/><stop offset="0.63" stop-color="#fff"/><stop offset="0.76" stop-color="#fff"/><stop offset="1"/></radialGradient><radialGradient id="radial-gradient-34" cx="148.67" cy="99.73" r="2.97" gradientTransform="matrix(-0.77, -0.63, 1.33, -1.63, 130.76, 356.79)" gradientUnits="userSpaceOnUse"><stop offset="0.3" stop-color="#fff"/><stop offset="0.76" stop-color="#fff"/><stop offset="1"/></radialGradient><radialGradient id="radial-gradient-35" cx="150.62" cy="72.74" r="8.72" gradientTransform="matrix(0.1, 1, -0.73, 0.07, 188.72, -82.32)" xlink:href="#radial-gradient-13"/><radialGradient id="radial-gradient-36" cx="184.69" cy="66.09" r="32.99" gradientTransform="matrix(-0.71, 0.7, -0.51, -0.52, 349.72, -29.82)" gradientUnits="userSpaceOnUse"><stop offset="0.38" stop-color="#fff"/><stop offset="0.47" stop-color="#fff"/><stop offset="0.88" stop-color="#fff"/><stop offset="0.9" stop-color="#fafafa"/><stop offset="0.91" stop-color="#ececec"/><stop offset="0.93" stop-color="#d6d6d6"/><stop offset="0.94" stop-color="#b5b5b5"/><stop offset="0.96" stop-color="#8c8c8c"/><stop offset="0.98" stop-color="#5a5a5a"/><stop offset="0.99" stop-color="#1f1f1f"/><stop offset="1"/></radialGradient><radialGradient id="radial-gradient-37" cx="162.1" cy="35.54" r="27.25" gradientTransform="matrix(-0.71, 0.7, -0.51, -0.52, 295.41, -60.24)" xlink:href="#radial-gradient-36"/></defs><title>logo</title><g class="cls-1"><g id="Layer_2" data-name="Layer 2"><g id="Layer_1-2" data-name="Layer 1"><rect class="cls-2" x="140.95" y="172.31" width="0.26" height="19.43"/><polygon class="cls-2" points="141.2 193.61 141.2 193.85 141.09 193.96 141.2 194.07 141.2 196.35 140.95 196.35 140.95 194.07 141.06 193.96 140.95 193.85 140.95 193.61 141.2 193.61"/><rect class="cls-2" x="140.95" y="138.51" width="0.26" height="31.93"/><polygon class="cls-2" points="141.2 193.49 141.2 193.85 141.09 193.96 141.2 194.07 141.2 196.35 140.95 196.35 140.95 194.07 141.06 193.96 140.95 193.85 140.95 193.49 141.07 193.61 141.2 193.49"/><path class="cls-2" d="M141.33,193.72v-.36l-.26.25-.25-.25v.36l.13.13.11.11-.11.11-.13.13v2.08l.19.19h.13l.19-.19V194.2l-.13-.13-.11-.11Z"/><polygon class="cls-2" points="141.2 172.18 141.2 191.87 141.07 191.74 140.95 191.87 140.95 172.18 141.07 172.31 141.2 172.18"/><path class="cls-2" d="M141.07,172.31l-.25-.25V192l.25-.26.26.26V172.06Z"/><polygon class="cls-2" points="141.2 138.51 141.2 170.56 141.07 170.44 140.95 170.56 140.95 138.51 141.2 138.51"/><path class="cls-2" d="M140.82,138.38v32.31l.25-.25.26.25V138.38Z"/><path class="cls-2" d="M100,143c1.58,0,3.18-.11,4.77-.17l2.62-.09c-3.23,2.71-6.56,3.3-10.11,3.39,4.91,2,10.94-.89,12.82-6,.83-2.23.32-2.78-2.17-2.53s-5.21.79-7.36-1.37a14.05,14.05,0,0,0-1.19,1.35c-.44.63-.74,1.35-1.18,2A2.16,2.16,0,0,0,100,143Z"/><path class="cls-2" d="M179.92,45.85A43.06,43.06,0,0,1,172.66,52c-13.42,7.77-15.83,18.18-16.19,20.21,0,.22-.05.35-.05.35l-.33-.59c-6.07-10.49-9.32-.68-9.32-.68q-.09-.9-.09-1.65h0c0-5.57,3.46-5.26,3.46-5.26,4-.32,6.08,3.74,6.08,3.74,1.57-5.63,5.36-10.38,8.83-13.76a45.77,45.77,0,0,1,6.88-5.55c11.92-6.94,13.42-15.72,13.42-15.72a.77.77,0,0,1,0,.15C186,37.9,183.12,42.42,179.92,45.85Z"/><path class="cls-2" d="M175.7,61.2s2-3.07,2.58-1.54c0,0-4.44,4-5.08,8v1.25S175,64.4,177.65,63a3.94,3.94,0,0,0,2.19-3.15,2.65,2.65,0,0,0-1.24-2.67c-1.32-.76-2.5.82-3,1.71a2.32,2.32,0,0,0-.35,1.42A1.05,1.05,0,0,0,175.7,61.2Z"/><rect class="cls-2" x="177.11" y="65.7" width="1.5" height="1.5" transform="translate(99.08 -106.31) rotate(45)"/><rect class="cls-2" x="177.11" y="67.8" width="1.5" height="1.5" transform="translate(100.57 -105.69) rotate(45)"/><path class="cls-2" d="M153.49,79.15l0,.06s-1.63-3.27-4-.46a.08.08,0,0,0,0,0c-.05-.37-.64-5,2.63-4.42S153.71,78.64,153.49,79.15Z"/><path class="cls-2" d="M126,107.54c-3.9,11-15.51,11.07-15.51,11.07l.5-1.38.51-1.4c10-1.5,13.62-6.74,14.36-8,0,0,0,0,0,0Z"/><path class="cls-2" d="M144.55,74.15l-.78,1.69-.47,1a24.37,24.37,0,0,0-9.9,2.54,14.31,14.31,0,0,0-5,4.13,0,0,0,0,0,0,0l-.19.28A15.9,15.9,0,0,1,133,77.64,18.48,18.48,0,0,1,144.55,74.15Z"/><path class="cls-2" d="M171.84,120.91a5,5,0,0,1-.68,1c-.62.71-1.61,1.25-2.74-.38l.38-2.39s2.14,3.37,3-1a5.6,5.6,0,0,0,.09-1.34c0-.08,0-.15,0-.22l-.06-.39a.3.3,0,0,0,0-.1c-.64-3.32-4.08-5.69-4.08-5.69l.2-1.22.14-.89S174.33,110.19,171.84,120.91Z"/><path class="cls-2" d="M160.31,131.3l-1.41,2.36-.12-.64-.13-.69a12.39,12.39,0,0,0,1.86-5.56,4.78,4.78,0,0,0,0-.79l0-.08a1.06,1.06,0,0,0,0-.19h0c-.45-1.53-2.32-.3-2.32-.3l-.29-1.54-.3-1.5A2.4,2.4,0,0,1,158,122c.65-.43,1.87-.8,2.82,1.5l.25.68A8.37,8.37,0,0,1,160.31,131.3Z"/><path class="cls-2" d="M148.21,121.22l-.39,1.93-.48,2.45c-5.48-1.84-11.46,8.06-11.46,8.06a16,16,0,0,1,.57-2.36C139.3,122.29,148.21,121.22,148.21,121.22Z"/><path class="cls-2" d="M121.35,71.13c-4.71,2-7.41,8.73-7.41,8.73-.19-6.71,6-10.82,6-10.82-1.31-1.14-3.23,0-3.23,0a3.2,3.2,0,0,1,1.92-3.58C121.18,64.15,121.35,71.13,121.35,71.13Z"/><polygon class="cls-2" points="182.24 104.25 178.31 108.18 178.18 108.31 174.13 104.25 178.06 100.32 178.18 100.2 182.24 104.25"/><polygon class="cls-2" points="182.24 153.78 178.93 157.09 178.18 157.83 177.77 157.42 174.13 153.78 176.81 151.09 177.14 150.77 178.18 149.72 178.44 149.98 182.24 153.78"/><path class="cls-2" d="M178.18,171.56l-1.11,1.12,1.11,1.12,1.12-1.12Zm0,2.06-.25-.26-.68-.68.93-.93.26.25.68.68Z"/><path class="cls-2" d="M178.44,171.64l-.26-.26-.25.26-1,1,1,1,.25.25,1.31-1.3Zm-.51,1.72-.68-.68.93-.93.26.25.68.68-.94.94Z"/><path class="cls-2" d="M178.18,112l-1.11,1.12,1.11,1.11,1.12-1.11Zm0,2.06-.25-.26-.68-.68.68-.69.25-.25.26.25.68.69Z"/><path class="cls-2" d="M178.44,112l-.26-.26-.25.26-1,1,1.29,1.29.26-.25,1.05-1Zm-.26,2-.25-.26-.68-.68.68-.69.25-.25.26.25.68.69Z"/><rect class="cls-2" x="178.06" y="173.62" width="0.26" height="18.13"/><rect class="cls-2" x="178.06" y="138.23" width="0.26" height="33.52"/><polygon class="cls-2" points="178.44 173.36 178.44 192.01 178.18 191.75 177.93 192.01 177.93 173.36 178.18 173.62 178.44 173.36"/><path class="cls-2" d="M178.44,137.58V150l-.26-.26-.25.26v-11.6l0,0,.13-.18h0l.12-.18Z"/><polygon class="cls-2" points="178.18 157.83 178.44 157.58 178.44 172 178.18 171.75 177.93 172 177.93 157.58 178.18 157.83"/><polygon class="cls-2" points="178.44 100.71 178.44 112.39 178.18 112.13 177.93 112.39 177.93 100.71 178.06 100.71 178.06 100.32 178.18 100.2 178.31 100.32 178.31 100.71 178.44 100.71"/><rect class="cls-2" x="138.21" y="153.42" width="5.74" height="5.74" transform="translate(151.83 -53.98) rotate(45)"/><path class="cls-2" d="M141.33,170.34l-.26-.25-1.29,1.29,1,1.05.25.25,1.3-1.3Zm-.26,2-.25-.25-.68-.69.68-.68.25-.25.26.25.68.68Z"/><polygon class="cls-2" points="160.93 74.16 159.76 75.33 159.65 75.44 159.63 75.46 158.33 74.16 159.63 72.86 160.93 74.16"/><polygon class="cls-2" points="160.93 76.72 159.76 77.9 159.63 78.02 158.33 76.72 159.5 75.55 159.61 75.44 159.63 75.42 160.93 76.72"/><line class="cls-2" x1="159.63" y1="73.14" x2="159.63" y2="90.21"/><polygon class="cls-2" points="159.76 75.33 159.65 75.44 159.76 75.55 159.76 90.21 159.5 90.21 159.5 75.55 159.61 75.44 159.5 75.33 159.5 73.14 159.76 73.14 159.76 75.33"/><polygon class="cls-2" points="133.31 161.07 132.26 162.11 132.01 162.37 131.99 162.35 131.88 162.24 131.75 162.11 130.71 161.07 132.01 159.78 132.26 160.03 133.31 161.07"/><polygon class="cls-2" points="133.31 163.64 132.26 164.68 132.01 164.93 131.75 164.68 130.71 163.64 132.01 162.34 132.02 162.35 132.14 162.47 132.26 162.6 133.31 163.64"/><polygon class="cls-2" points="132.14 162.24 132.02 162.35 132.14 162.47 132.14 178.9 132.01 178.77 131.88 178.9 131.88 162.47 131.99 162.35 131.88 162.24 131.88 160.05 132.14 160.05 132.14 162.24"/><path class="cls-2" d="M132,178.77l-.26.26-1,1,1,1.05.26.25.25-.25,1-1.05Zm0,2.24-.26-.26-.68-.68.94-.93.25.25.69.68-.69.68Z"/><polygon class="cls-2" points="132.14 162.24 132.02 162.35 132.14 162.47 132.14 178.9 132.01 178.77 131.88 178.9 131.88 162.47 131.99 162.35 131.88 162.24 131.88 160.05 132.14 160.05 132.14 162.24"/><path class="cls-2" d="M132.26,162.11V160l-.1-.11h-.3l-.11.11v2.08l.13.13.11.11-.24.25V179l.26-.26.25.26V162.6l-.12-.13-.12-.12Z"/><polygon class="cls-2" points="163.68 156.28 159.76 160.21 159.71 160.26 159.63 160.34 159.54 160.26 159.5 160.22 159.38 160.09 155.58 156.28 159.63 152.23 159.89 152.49 163.68 156.28"/><polygon class="cls-2" points="163.68 164.23 159.89 168.02 159.76 168.15 159.63 168.28 159.38 168.03 155.58 164.23 159.38 160.42 159.5 160.29 159.54 160.26 159.63 160.17 159.71 160.26 159.76 160.3 159.89 160.43 163.68 164.23"/><path class="cls-2" d="M159.89,176.19l-.26-.25-.25.25-.87.87,1.12,1.11,1.12-1.11Zm-.26,1.8-.25-.26-.69-.67.94-.94.26.25.67.69-.67.67Z"/><path class="cls-2" d="M159.89,176l-.26-.26-.25.26-1,1.05,1,1,.25.25,1.3-1.29Zm-.26.11.26.25.67.69-.67.67-.26.26-.25-.26-.69-.67Z"/><path class="cls-2" d="M159.63,147l-1.12,1.12,1.12,1.11,1.12-1.11Zm0,2.05-.25-.26-.69-.67.69-.69.25-.25.26.25.67.69Z"/><path class="cls-2" d="M159.63,146.83l-.25.25-1,1,1.3,1.29.26-.25,1-1Zm-.25.61.25-.25.26.25.67.69-.93.93-.25-.26-.69-.67Z"/><rect class="cls-2" x="158.71" y="178.7" width="1.84" height="1.84" transform="translate(173.76 -60.27) rotate(45)"/><polyline class="cls-2" points="159.63 176.12 159.63 175.94 159.63 175.75 159.63 149.42 159.63 149.24 159.63 149.06"/><polyline class="cls-2" points="159.63 141.98 159.63 146.83 159.63 147.01 159.63 147.19"/><polyline class="cls-2" points="159.63 177.99 159.63 178.17 159.63 178.32 159.63 178.35 159.63 180.92 159.63 193.77 159.63 193.95 159.63 194.13"/><polygon class="cls-2" points="159.76 177.86 159.76 194.26 159.63 194.13 159.5 194.26 159.5 177.86 159.63 177.99 159.76 177.86"/><path class="cls-2" d="M159.63,178l-.25-.26v16.66l.25-.26.26.26V177.73Z"/><polygon class="cls-2" points="159.76 148.93 159.76 160.21 159.71 160.26 159.76 160.3 159.76 176.25 159.63 176.12 159.5 176.25 159.5 160.29 159.54 160.26 159.5 160.22 159.5 148.93 159.63 149.06 159.76 148.93"/><path class="cls-2" d="M159.63,149.06l-.25-.26v11.29l.12.13,0,0,0,0-.12.13v16l.25-.25.26.25V160.43l-.13-.13,0,0,0,0,.13-.13V148.8Z"/><path class="cls-2" d="M159.76,141.85v5.46l-.13-.12-.13.12v-5.19l.13-.14A1.59,1.59,0,0,0,159.76,141.85Z"/><path class="cls-2" d="M159.66,141.76a.79.79,0,0,1-.13.13.74.74,0,0,1-.12.13l0,0v5.38l.25-.25.26.25v-5.93Z"/><rect class="cls-2" x="156.76" y="103.86" width="5.74" height="5.74" transform="translate(122.22 -81.61) rotate(45)"/><rect class="cls-2" x="156.76" y="111.8" width="5.74" height="5.74" transform="translate(127.84 -79.29) rotate(45)"/><path class="cls-2" d="M126.55,151.78a25.11,25.11,0,0,1-5.74,11.4,12.82,12.82,0,0,0-3.09,6.86c-.25,2.14.06,4.43,2,5.83a4,4,0,0,0,2.82-.72l-.07-4.25s-2.54,4-3.47.72c0,0-1.34-2.07,3.48-7.83a20.1,20.1,0,0,0,3.23-5.37C126.55,156.22,127.27,153.56,126.55,151.78Z"/><path class="cls-2" d="M139.52,66.73a4.3,4.3,0,0,0,.17-1.2c0-1.24-.4-2.77-1.74-2.77a3,3,0,0,0-2.78,2.77c0,1,.53,1.7,2.72,2.21a6.52,6.52,0,0,1-3.58,1.32,6.87,6.87,0,0,0,.13-1.32c0-1-.26-1.92-1.07-1.92a6.53,6.53,0,0,0-2.06.84L131,68.22l.06,0a7.49,7.49,0,0,1,2.12-.78c.21,0,.36.3.36.85a5.92,5.92,0,0,1-.47,2.08l0,.1a4.78,4.78,0,0,0,.54,0A6.7,6.7,0,0,0,138.93,68c.17,0,.34.06.55.08l.82-1.24C140,66.79,139.75,66.77,139.52,66.73Zm-.8-.17c-2.24-.51-2.56-1.39-2.56-1.74s.55-.78,1.18-.78c.78,0,1.47.92,1.47,2.06A1.45,1.45,0,0,1,138.72,66.56Z"/><path class="cls-2" d="M165,65c-.57,0-1.6.59-1.6,2.13A1.64,1.64,0,0,0,165,68.91a1.79,1.79,0,0,0,1.71-1.78C166.73,65.47,165.67,65,165,65Zm0,2.86a1,1,0,0,1-1.14-.93,1,1,0,0,1,.93-.87,1.61,1.61,0,0,1,1.44,1.11A1.36,1.36,0,0,1,165.06,67.82Z"/><path class="cls-2" d="M114.39,108.33a1.72,1.72,0,0,0-1.46,1.93,1.5,1.5,0,0,0,1.44,1.67,1.63,1.63,0,0,0,1.56-1.62C115.93,108.79,115,108.33,114.39,108.33Zm0,2.61a.91.91,0,0,1-1-.85.85.85,0,0,1,.85-.78,1.46,1.46,0,0,1,1.31,1A1.26,1.26,0,0,1,114.4,110.94Z"/><path class="cls-2" d="M143,129.51a1.73,1.73,0,0,0-1.47,1.94,1.5,1.5,0,0,0,1.44,1.66,1.63,1.63,0,0,0,1.56-1.62C144.49,130,143.53,129.51,143,129.51Zm0,2.61c-.74,0-1-.47-1-.84a.85.85,0,0,1,.85-.79,1.46,1.46,0,0,1,1.31,1A1.24,1.24,0,0,1,143,132.12Z"/><path class="cls-2" d="M170.52,98.55c-.53,0-1.46.53-1.46,1.93a1.5,1.5,0,0,0,1.44,1.66,1.63,1.63,0,0,0,1.56-1.62C172.06,99,171.09,98.55,170.52,98.55Zm0,2.6c-.74,0-1-.47-1-.84a.86.86,0,0,1,.84-.79,1.48,1.48,0,0,1,1.32,1A1.24,1.24,0,0,1,170.53,101.15Z"/><path class="cls-2" d="M179.26,75.41A13.49,13.49,0,0,0,175.79,72V79l.18.15a19.4,19.4,0,0,1,2.47,2.43,10.09,10.09,0,0,1,.86,1.2,5,5,0,0,1,.74,1.81,2.67,2.67,0,0,1,0,.56h0c-.07,1.17-1,2.19-3.5,2.74-4.1.91-6.41-1.31-7.69-3.8-.22-.42-.4-.84-.57-1.26l-.18-.5c-.12-.36-.23-.71-.32-1h0l-.48-2.49h0v-.05H167v0c0,.11-.07.67-.1,1.52v.21a25.15,25.15,0,0,0,.08,3c0,.71-.08,1.44-.17,2.14a.37.37,0,0,1,0,.11h0c-.07.67-.17,1.33-.29,2-.48,2.56-1.36,4.75-2.92,5.5a2.39,2.39,0,0,1-.37.15,7,7,0,0,1-1.9.34,5.78,5.78,0,0,1-5.22-3.32h0a.1.1,0,0,1,0,0s0-.19-.08-.52c0-.13-.06-.27-.1-.42h0A8.2,8.2,0,0,0,154.11,86a5.54,5.54,0,0,0-.82-.78,5.9,5.9,0,0,0-2.53-1.13h0a3.8,3.8,0,0,0-1-.17h0c-2.79-.47-6.43.68-8.34.64a22.68,22.68,0,0,0-2.35.06,20.83,20.83,0,0,0-2.14.28,16.26,16.26,0,0,0-3.45,1,16.48,16.48,0,0,0-7.85,7.43,17.88,17.88,0,0,1-1.56,2.3c-.35.46-.71.92-1.07,1.36a16.87,16.87,0,0,1-3.92,3.6,10.62,10.62,0,0,1-4.13,1.58v.56c.45.07.9.12,1.34.2a37.24,37.24,0,0,0,6.86.56c.79,0,1.56,0,2.32-.12a24.57,24.57,0,0,0,4.24-.75,24,24,0,0,0,3.39-1.21c-1.44,3.11-2.91,6.56-4.49,10.24l-.59,1.38c-2.2,5.14-4.63,10.71-7.53,16.44-.62,1.23-1.27,2.47-1.94,3.71q-1.42,2.64-3,5.31l0,0a115.51,115.51,0,0,1-9.36,13.56q-2.2,2.75-4.66,5.41a97.24,97.24,0,0,1-17.61,15c-12,8-23.2,10.2-32.57,9.86a52,52,0,0,1-19.81-4.77,38.62,38.62,0,0,1-6.27-3.52A58,58,0,0,1,7.6,153.86a47.27,47.27,0,0,1-4.37-12.55,48.62,48.62,0,0,1,2.35-26l0-.06a69.37,69.37,0,0,1,5.08-10.92h0c.47-.76,1-1.52,1.49-2.26A49.29,49.29,0,0,1,17,96.19,50.94,50.94,0,0,1,26,88.63,50,50,0,0,1,36.7,83.47a48.62,48.62,0,0,1,11.64-2.36c1-.09,2-.09,3-.14s2,0,3,.06a49.48,49.48,0,0,1,5.94.65,48,48,0,0,1,12.84,4.19,49,49,0,0,1,8.84,5.56,49.94,49.94,0,0,0-7.1-4.93,48.85,48.85,0,0,0-11.51-4.75h0c-1-.26-1.93-.49-2.91-.68a46.7,46.7,0,0,0-6-.83c-1-.1-2-.1-3-.14s-2,0-3,.06a49.93,49.93,0,0,0-12,2.1,51.17,51.17,0,0,0-11.11,5,52.73,52.73,0,0,0-9.6,7.57,53.31,53.31,0,0,0-11.1,16.39c-.62,1.44-1.19,2.9-1.68,4.4a57.44,57.44,0,0,0-1.63,6c-.18,1-.39,2-.54,3l-.21,1.53-.1.77-.07.77c-.09,1-.19,2.05-.2,3.08L0,132.32l0,1.54,0,1.55c0,.52,0,1,.07,1.55L.45,140A58.07,58.07,0,0,0,3.24,151.7c0,.13.09.27.14.4a57.58,57.58,0,0,0,2.76,6.16A54.11,54.11,0,0,0,9,163.2l1.79,2.56c.64.82,1.31,1.62,2,2.44l.49.61c.17.2.36.38.53.57l1.07,1.15,1.08,1.14,1.15,1.06,1.14,1.07.58.53.62.48c.82.66,1.63,1.32,2.46,1.95l2.6,1.78a14.12,14.12,0,0,0,1.34.82l1.36.79q1.45.82,3,1.56c.46.23.91.44,1.38.64l.19.09v2.45a27.9,27.9,0,0,0,3.3,1.36l.4.14c.6.21,1.27.42,2,.64l1.06.3.17,0c.73.2,1.5.39,2.33.56l.84.18.77.15,1,.18.82.13h.08l1,.14,1.47.17c.52.05,1.05.1,1.6.13,1.06.08,2.15.13,3.28.14h0c12.38.15,29.07-3.86,46-20.59a101,101,0,0,0,9.23-11,161.64,161.64,0,0,0,11.16-17.33c1-1.77,2-3.63,3-5.57l1-2q2.25-4.54,4.42-9.64c1.43-3.37,2.76-6.37,4-9.06l.41-.87A112.94,112.94,0,0,1,139.33,98c3.93-5.8,6-6.41,6.93-6.69a.76.76,0,0,0,.22-.11s0,0,0,0a8.57,8.57,0,0,1,3.43-.56,5.78,5.78,0,0,1,4.17,2,8.81,8.81,0,0,1,1.56,2.72.91.91,0,0,0,0,.16,3.7,3.7,0,0,0,.09.51c0,.22.1.48.17.77a6.28,6.28,0,0,0,1.54,2.81,3.07,3.07,0,0,0,1.84.85,6.31,6.31,0,0,0,6.74-2.71,5.91,5.91,0,0,0,.42-.61,7.59,7.59,0,0,0,.49-.85c0-.08.09-.17.13-.25a17.86,17.86,0,0,0,1.36-4c.07-.29.13-.59.19-.91l.06-.35.06-.38c.1.17.2.35.31.52a0,0,0,0,0,0,0c.11.17.22.34.34.5a4.62,4.62,0,0,0,.37.5,5.73,5.73,0,0,0,.39.45s0,0,0,.05l.36.37c.18.17.37.33.56.48l.39.28.42.27,0,0,.46.25a5.46,5.46,0,0,0,.6.27l.46.17h.05l.27.06.22,0,.14,0,.26,0,.53,0h.2a7.94,7.94,0,0,0,1,0c2.42-.24,5.69-1.77,6.06-8.17A18.18,18.18,0,0,0,179.26,75.41ZM130.52,98.7a3.56,3.56,0,0,1-1,.69c-.67.35-1.45.59-2.13.93v0l.33-.37c1.77-2,3.63-3.91,5.25-6,2.35-3.08,4.34-6.51,8.56-7.44C137.88,90.55,134.27,94.69,130.52,98.7Z"/><path class="cls-3" d="M131.09,113.07l-.41.87c-1.25,2.69-2.58,5.69-4,9.06s-2.92,6.61-4.42,9.64l-1,2c-1,1.94-2,3.8-3,5.57a161.64,161.64,0,0,1-11.16,17.33h-5.59q2.46-2.67,4.66-5.41a117.92,117.92,0,0,0,9.39-13.6q1.59-2.67,3-5.31c.67-1.24,1.32-2.48,1.94-3.71,2.9-5.73,5.33-11.3,7.53-16.44Z"/><path class="cls-4" d="M115.56,138.53l0,.05a0,0,0,0,0,0,0Z"/><path class="cls-5" d="M180.23,86.16a6.65,6.65,0,0,1-10.81,5.21,9.69,9.69,0,0,1-.66-1.05l-.06.39a6.65,6.65,0,0,1-.57-8.4,12.56,12.56,0,0,0,.75,1.76c1.28,2.49,3.59,4.71,7.69,3.8,2.51-.55,3.43-1.57,3.5-2.74h0a2.67,2.67,0,0,0,0-.56A6.49,6.49,0,0,1,180.23,86.16Z"/><path class="cls-6" d="M168.76,90.33l-.06.38A19.5,19.5,0,0,1,167.09,96a8.72,8.72,0,0,1-3.55-2.79c2-.94,2.84-4.11,3.21-7.48h0a.37.37,0,0,0,0-.11c.09-.7.14-1.43.17-2.14A17.82,17.82,0,0,0,168.76,90.33Z"/><path class="cls-7" d="M168.64,91.06c-.06.32-.12.62-.19.91a17.86,17.86,0,0,1-1.36,4c0,.08-.08.17-.13.25a7.59,7.59,0,0,1-.49.85,5.91,5.91,0,0,1-.42.61A6.43,6.43,0,0,1,162.26,99a6.54,6.54,0,0,1-6.21-8.56,5.78,5.78,0,0,0,5.22,3.32,6.68,6.68,0,0,0,2.22-.34,2.75,2.75,0,0,0,.36-.15c1.56-.75,2.44-2.94,2.92-5.5A6.48,6.48,0,0,1,168.64,91.06Z"/><path class="cls-8" d="M156,94.37h0a8.8,8.8,0,0,1-.26,1.63,3.7,3.7,0,0,1-.09-.51.91.91,0,0,1,0-.16c-1.35-3.6-3.71-4.62-5.73-4.73a8.57,8.57,0,0,0-3.43.56s0,0,0,0a.76.76,0,0,1-.22.11c-.88.28-3,.89-6.93,6.69a8.89,8.89,0,1,1,16.45-6.37h0Z"/><path class="cls-9" d="M133.49,85.94A19.76,19.76,0,0,1,118.84,102a19.3,19.3,0,0,1-3.87.59v-.42c4.06-.64,6.73-3.38,9.12-6.54a17.88,17.88,0,0,0,1.56-2.3A16.48,16.48,0,0,1,133.49,85.94Z"/><path class="cls-2" d="M181.4,133.53a12.2,12.2,0,0,1-1.54,4.5l-.13.2a1.27,1.27,0,0,1-.13.19c-2.88,4.05-7.68,2.13-7.68,2.13a8.07,8.07,0,0,1-3.68-3.42,6.71,6.71,0,0,0,4.42,1.64,6.8,6.8,0,0,0,6.81-6.8c0-.12,0-.23,0-.34h0a3.39,3.39,0,0,0-.13-1l0-.1a10.73,10.73,0,0,0-2.05-3.54v0a20.35,20.35,0,0,0-1.42-1.57l.73-6.9a13,13,0,0,1,3,3.64l.13.23a1.71,1.71,0,0,0,.13.23A18.34,18.34,0,0,1,181.4,133.53Z"/><path class="cls-2" d="M126.17,75.91a29.82,29.82,0,0,1-2.88,7.59c-.33.61-.68,1.21-1,1.77A40.36,40.36,0,0,1,113.74,95a25.59,25.59,0,0,0-3.37,3.21l-.54.64-.25.32a26.95,26.95,0,0,0-6.9,16.43,31,31,0,0,1,.09-5.69,32.28,32.28,0,0,1,2.45-9.29c.3-.73.63-1.44,1-2.11a37.93,37.93,0,0,1,1.92-3.39,32.66,32.66,0,0,1,2.57-3.49,38.11,38.11,0,0,1,5.07-5c.6-.49,1.34-1.14,2.14-1.92a29.73,29.73,0,0,0,4.78-5.91,18,18,0,0,0,2.59-7A13.88,13.88,0,0,0,125,66.5s0-.06,0-.1c-3.08-11.91-14.87-28.56-14.87-28.56-.49-.59-1-1.18-1.4-1.76q-1.18-1.55-2.19-3.06a45.75,45.75,0,0,1-5.73-11.76c-.35-1.14-.64-2.24-.86-3.31a.35.35,0,0,1,0-.11c0-.16-.07-.34-.1-.51h0a32.67,32.67,0,0,1-.24-11.63h0A23.18,23.18,0,0,1,101.13,0a10.81,10.81,0,0,0-.47,1.39C97.49,13.3,112.83,34,112.83,34c.46.67.9,1.34,1.34,2s.78,1.19,1.15,1.77c1.23,1.93,2.34,3.77,3.31,5.49.42.74.81,1.45,1.18,2.15h0a66.48,66.48,0,0,1,5.73,13.81c.12.42.21.82.31,1.2h0a25.47,25.47,0,0,1,.68,4.34c0,.9.12,1.8.2,2.7l0,.37A26.31,26.31,0,0,1,126.17,75.91Z"/><path class="cls-2" d="M179.47,132a6.8,6.8,0,0,1-6.81,6.8,6.71,6.71,0,0,1-4.42-1.64,10,10,0,0,1-.69-1.44,14.54,14.54,0,0,1-.84-3.41c-.07.89-.17,1.71-.27,2.44a21.12,21.12,0,0,1-1.1,4.53,9.8,9.8,0,0,1-1.71,2.6l-.13.13-.13.14-.22.2a5.84,5.84,0,0,1-5.21,1.57,6.19,6.19,0,0,1-1-.27c-2.63-.9-3.65-3.85-4-6.82a.83.83,0,0,1,0-.22h0a24.84,24.84,0,0,1-4.12,3.3l-.63.4-.77.44-.13.06-.12.07a26,26,0,0,1-8.82,2.81,36.54,36.54,0,0,1-3.65.32,32.39,32.39,0,0,1-9-.87c-.83-.2-1.62-.44-2.39-.69l-.5-.17a28.86,28.86,0,0,1-4.52-2,27.68,27.68,0,0,1-2.7-1.68,30.43,30.43,0,0,1-10.28-12.61,31.11,31.11,0,0,1-2.6-10.33,26.95,26.95,0,0,1,6.9-16.43,19.92,19.92,0,0,0-1.68,2.54,21.39,21.39,0,0,0,.56,21.52c.3.51.64,1,1,1.49a31.56,31.56,0,0,0,9.12,8.51,26.83,26.83,0,0,0,2.67,1.42,25.62,25.62,0,0,0,4.44,1.59,23.12,23.12,0,0,0,3.16.62,16.31,16.31,0,0,0,2,.14l1.18,0a31.27,31.27,0,0,0,15-3.11c.4-.19.78-.4,1.16-.61a26.37,26.37,0,0,0,5-3.67h0l.6.07s0,.1,0,.29a10.5,10.5,0,0,0,.16,1.81c0,.11,0,.23.08.35a7.52,7.52,0,0,0,.89,2.32,6,6,0,0,0,4.3,2.91,4.5,4.5,0,0,0,4.2-1.42.86.86,0,0,0,.13-.14l.13-.14a12.89,12.89,0,0,0,2.24-4c.06-.19.13-.37.18-.54.21-.6.37-1.16.48-1.61V129a26.24,26.24,0,0,1,.53-4.84l.52,0a16.82,16.82,0,0,0,.24,3c.54,3.19,2.28,7.73,7.84,7.11,2.77-.31,3.74-1.37,3.8-2.67C179.46,131.74,179.47,131.85,179.47,132Z"/><path class="cls-10" d="M37.42,187l1.06.3Z"/><path class="cls-11" d="M38.65,187.37c.72.19,1.5.38,2.33.56C40.15,187.76,39.38,187.57,38.65,187.37Z"/><path class="cls-12" d="M48.58,189c1.06.08,2.15.13,3.28.14C50.73,189.15,49.64,189.1,48.58,189Z"/><path class="cls-13" d="M87.41,173.41c-25.89,19.36-49.52,11.56-55.7,9l-.19-.09c-.47-.2-.92-.41-1.38-.64q-1.52-.74-3-1.56l-1.36-.79a14.12,14.12,0,0,1-1.34-.82l-2.6-1.78c-.83-.63-1.64-1.29-2.46-1.95l-.62-.48-.58-.53-1.14-1.07-1.15-1.06-1.08-1.14-1.07-1.15c-.17-.19-.36-.37-.53-.57l-.49-.61c-.65-.82-1.32-1.62-2-2.44L9,163.2a54.11,54.11,0,0,1-2.86-4.94,57.58,57.58,0,0,1-2.76-6.16c0-.13-.1-.27-.14-.4A58.07,58.07,0,0,1,.45,140L.14,137c-.06-.52-.05-1-.07-1.55l0-1.55,0-1.54.06-1.55c0-1,.11-2.06.2-3.08l.07-.77.1-.77.21-1.53c.15-1,.36-2,.54-3a57.44,57.44,0,0,1,1.63-6c.49-1.5,1.06-3,1.68-4.4a53.31,53.31,0,0,1,11.1-16.39,52.73,52.73,0,0,1,9.6-7.57,51.17,51.17,0,0,1,11.11-5,49.93,49.93,0,0,1,12-2.1c1-.06,2,0,3-.06s2,0,3,.14a46.7,46.7,0,0,1,6,.83c1,.19,2,.42,2.91.68h0A48.85,48.85,0,0,1,74.83,86.5a49.94,49.94,0,0,1,7.1,4.93,49,49,0,0,0-8.84-5.56,48,48,0,0,0-12.84-4.19A49.48,49.48,0,0,0,54.31,81c-1-.07-2,0-3-.06s-2,0-3,.14A48.62,48.62,0,0,0,36.7,83.47,50,50,0,0,0,26,88.63,50.94,50.94,0,0,0,17,96.19a49.29,49.29,0,0,0-4.79,5.91c-.52.74-1,1.5-1.49,2.26h0a69.37,69.37,0,0,0-5.08,10.92l0,.06a48.62,48.62,0,0,0-2.35,26A47.27,47.27,0,0,0,7.6,153.86a58,58,0,0,0,17.65,20.29,38.62,38.62,0,0,0,6.27,3.52,52,52,0,0,0,19.81,4.77c9.37.34,20.6-1.88,32.57-9.86l1.68-1.14C86.17,172.12,86.78,172.77,87.41,173.41Z"/><path class="cls-14" d="M179.47,132a6.8,6.8,0,0,1-6.81,6.8,6.71,6.71,0,0,1-4.42-1.64,13,13,0,0,1-1.53-4.85c-.07.89-.17,1.71-.27,2.44a6.64,6.64,0,0,1-.58-2.75,2.71,2.71,0,0,1,0-.29c.29-.81.51-1.56.66-2.15V129a6.91,6.91,0,0,1,1.29-1.82c.54,3.19,2.28,7.73,7.84,7.11,2.77-.31,3.74-1.37,3.8-2.67C179.46,131.74,179.47,131.85,179.47,132Z"/><path class="cls-15" d="M166.7,132.44a24.39,24.39,0,0,1-1.35,6.77s-2.62,6.35-8.42,4.37c-2.69-.91-3.7-4-4-7a29.21,29.21,0,0,1,.22-7h0l.6.07a9.22,9.22,0,0,0,1.12,4.77,6,6,0,0,0,4.3,2.92c4.58.86,6.65-5.11,7.35-7.8A20.89,20.89,0,0,0,166.7,132.44Z"/><path class="cls-16" d="M164.68,134.2a10.14,10.14,0,0,0,1.76.48v0a21.12,21.12,0,0,1-1.1,4.53,9.8,9.8,0,0,1-1.71,2.6l-.13.13-.13.14-.22.2a7.25,7.25,0,0,1-3,.62A7.35,7.35,0,0,1,153,136.8a.83.83,0,0,1,0-.22h0a6.41,6.41,0,0,1-.07-1,7.34,7.34,0,0,1,1.06-3.81,8.19,8.19,0,0,0,1,2.67,6,6,0,0,0,4.3,2.91,4.5,4.5,0,0,0,4.2-1.42.86.86,0,0,0,.13-.14l.13-.14A9.2,9.2,0,0,0,164.68,134.2Z"/><path class="cls-17" d="M153.15,129.61h0Z"/><path class="cls-18" d="M152.93,136.53a.12.12,0,0,0,0,.08,25.6,25.6,0,0,1-4.73,3.67,13.8,13.8,0,0,1,0-7,26.37,26.37,0,0,0,5-3.67A29.8,29.8,0,0,0,152.93,136.53Z"/><path class="cls-19" d="M153.75,129.68s0,.1,0,.29a27.23,27.23,0,0,1-19.07,14,32.39,32.39,0,0,1-9-.87c-.83-.2-1.62-.44-2.39-.69l-.5-.17a28.86,28.86,0,0,1-4.52-2,27.68,27.68,0,0,1-2.7-1.68,30.92,30.92,0,0,1-12.88-22.94,26.95,26.95,0,0,1,6.9-16.43,19.92,19.92,0,0,0-1.68,2.54,21.44,21.44,0,0,0,1.55,23,31.56,31.56,0,0,0,9.12,8.51,26.83,26.83,0,0,0,2.67,1.42,25.62,25.62,0,0,0,4.44,1.59,23.12,23.12,0,0,0,3.16.62,16.31,16.31,0,0,0,2,.14l1.18,0a30.85,30.85,0,0,0,16.11-3.72,26.37,26.37,0,0,0,5-3.67h0Z"/><path class="cls-20" d="M126.11,65.69A36.67,36.67,0,0,1,106.19,98.5a37.93,37.93,0,0,1,1.92-3.39,32.66,32.66,0,0,1,2.57-3.49,38.11,38.11,0,0,1,5.07-5,32,32,0,0,0,6.92-7.83,18,18,0,0,0,2.59-7A31.63,31.63,0,0,0,126.1,65C126.11,65.2,126.11,65.45,126.11,65.69Z"/><path class="cls-21" d="M125.26,71.75A13.88,13.88,0,0,0,125,66.5s0-.06,0-.1c-3.08-11.91-14.87-28.56-14.87-28.56-.49-.59-1-1.18-1.4-1.76a31.66,31.66,0,0,1,11.15,9.36h0a63.31,63.31,0,0,1,6,15h0a31.78,31.78,0,0,1,.24,3.93A32.35,32.35,0,0,1,125.26,71.75Z"/><path class="cls-22" d="M126.11,64.4c0,.19,0,.37,0,.56a36.7,36.7,0,0,0-.54-5.7c.12.42.21.82.31,1.2h0A31.78,31.78,0,0,1,126.11,64.4Z"/><path class="cls-23" d="M154,132.13a29.12,29.12,0,0,1-4.79,4.08,29,29,0,0,1-45.31-24,29.93,29.93,0,0,1,.26-3.93,27.25,27.25,0,0,1,5.44-9.17,19.92,19.92,0,0,0-1.68,2.54,21.44,21.44,0,0,0,1.55,23,31.56,31.56,0,0,0,9.12,8.51,26.83,26.83,0,0,0,2.67,1.42,25.62,25.62,0,0,0,4.44,1.59,23.12,23.12,0,0,0,3.16.62,16.31,16.31,0,0,0,2,.14l1.18,0a30.85,30.85,0,0,0,16.11-3.72,26.37,26.37,0,0,0,5-3.67h0l.6.07s0,.1,0,.29a10.5,10.5,0,0,0,.16,1.81C153.92,131.89,154,132,154,132.13Z"/><path class="cls-24" d="M120.33,82.06c.4-.48.79-1,1.17-1.52C121.12,81.07,120.73,81.58,120.33,82.06Z"/><path class="cls-25" d="M125.26,71.75A13.88,13.88,0,0,0,125,66.5s0-.06,0-.1c-3.08-11.91-14.87-28.56-14.87-28.56-.49-.59-1-1.18-1.4-1.76q-1.18-1.55-2.19-3.06a45.75,45.75,0,0,1-5.73-11.76c5.47,5,11.29,12.76,16.17,22.1,4.8,9.17,7.83,18.19,8.89,25.47C125.67,69.82,125.48,70.8,125.26,71.75Z"/><path class="cls-26" d="M148.79,139.88l-.63.4-.77.44-.13.06-.12.07a26,26,0,0,1-8.82,2.81,36.54,36.54,0,0,1-3.65.32,32.39,32.39,0,0,1-9-.87c-.83-.2-1.62-.44-2.39-.69l-.5-.17a28.86,28.86,0,0,1-4.52-2,27.68,27.68,0,0,1-2.7-1.68,30.43,30.43,0,0,1-10.28-12.61,25.76,25.76,0,0,1,3.18-2.7c.3.51.64,1,1,1.49a31.56,31.56,0,0,0,9.12,8.51,26.83,26.83,0,0,0,2.67,1.42,25.62,25.62,0,0,0,4.44,1.59,23.12,23.12,0,0,0,3.16.62,16.31,16.31,0,0,0,2,.14l1.18,0a31.27,31.27,0,0,0,15-3.11A25.64,25.64,0,0,1,148.79,139.88Z"/><path class="cls-2" d="M154.67,122.5s0,0,0-.08a23.79,23.79,0,0,0-.91-3.1,9.63,9.63,0,0,0-2.9-4.11,5.9,5.9,0,0,0-1.82-1.09c-2.35-.64-5.08,1-7.9,4a53.58,53.58,0,0,0-5.47,7.09c-2.42,3.63-4.75,7.72-6.81,11.61-1,1.82-1.86,3.6-2.69,5.27-.12.25-.28.59-.48,1-1.46,3-4.67,9.65-5.81,11.64-1,1.69-2,3.35-3.07,5C95,192.47,75.52,196.36,75.52,196.36l0-2.57-.09-4.59c2.47-.36,6.22-2.31,9.63-4.39a90.72,90.72,0,0,0,13.68-10.46,129.18,129.18,0,0,0,24.09-32.1c.58-1.1,1.14-2.22,1.7-3.37.19-.38.5-1.08.89-1.95l.31-.7c1.65-3.71,4.28-9.76,5.17-11.53a66.1,66.1,0,0,1,4.53-7.76c5.27-7.63,9.46-8.88,11.67-8.88a8.24,8.24,0,0,1,5.08,1.43,6.34,6.34,0,0,1,2,2.57h0C156.06,116.25,154.67,122.5,154.67,122.5Z"/><path class="cls-27" d="M154.65,122.42a23.79,23.79,0,0,0-.91-3.1,9.63,9.63,0,0,0-2.9-4.11,5.9,5.9,0,0,0-1.82-1.09c-2.35-.64-5.08,1-7.9,4a53.58,53.58,0,0,0-5.47,7.09,12.71,12.71,0,0,1,1.88-8.09c3.22-5.32,9.3-7.53,13.57-4.94C154.3,114.15,155.58,118.25,154.65,122.42Z"/><path class="cls-28" d="M125.37,136.93A88,88,0,0,1,111,165.75c-10.27,13.82-23.16,23.57-35.54,28l-.09-4.59c2.47-.36,6.22-2.31,9.63-4.39a90.72,90.72,0,0,0,13.68-10.46,129.18,129.18,0,0,0,24.09-32.1c.58-1.1,1.14-2.22,1.7-3.37C124.67,138.5,125,137.8,125.37,136.93Z"/><path class="cls-29" d="M182.24,153.78l-3.31,3.31a6.47,6.47,0,0,1-2.21-4.88,6.86,6.86,0,0,1,.09-1.12l.33-.32,1-1.05.26.26Z"/><path class="cls-30" d="M182.24,104.25l-3.31,3.31a6.47,6.47,0,0,1-2.21-4.88,6.86,6.86,0,0,1,.09-1.12l.33-.32,1-1,.26.25Z"/><path class="cls-31" d="M163.68,106.72,160.37,110a6.5,6.5,0,0,1-2.21-4.88,5.91,5.91,0,0,1,.1-1.12l.33-.33,1-1,.25.26Z"/><path class="cls-32" d="M163.69,114.69,160.38,118a6.44,6.44,0,0,1-2.21-4.88,5.8,5.8,0,0,1,.1-1.11l.32-.33,1-1,.26.26Z"/><path class="cls-33" d="M163.68,156.29l-3.31,3.32a6.51,6.51,0,0,1-2.21-4.89,5.8,5.8,0,0,1,.1-1.11l.33-.33,1-1,.25.26Z"/><path class="cls-34" d="M145.13,156.29l-3.31,3.32a6.51,6.51,0,0,1-2.21-4.89,5.8,5.8,0,0,1,.1-1.11l.33-.33,1-1,.25.26Z"/><path class="cls-35" d="M163.69,164.26l-3.31,3.31a6.47,6.47,0,0,1-2.21-4.88,6,6,0,0,1,.1-1.12l.32-.32,1-1,.26.26Z"/><path class="cls-36" d="M147.82,123.15l-.48,2.45c-5.48-1.84-11.46,8.06-11.46,8.06a16,16,0,0,1,.57-2.36A13.53,13.53,0,0,1,147.82,123.15Z"/><path class="cls-37" d="M125.85,107.81A16.44,16.44,0,0,1,111,117.23l.51-1.4C121.52,114.33,125.11,109.09,125.85,107.81Z"/><path class="cls-38" d="M143.77,75.84l-.47,1a24.37,24.37,0,0,0-9.9,2.54,14.31,14.31,0,0,0-5,4.13,14.15,14.15,0,0,1,15.41-7.67Z"/><path class="cls-39" d="M158.1,125.41l-.29-1.54-.3-1.5A2.4,2.4,0,0,1,158,122a6.23,6.23,0,0,1,2.46,3.71C160,124.18,158.1,125.41,158.1,125.41Z"/><path class="cls-40" d="M160.39,129.76a8.52,8.52,0,0,1-1.61,3.26l-.13-.69a12.39,12.39,0,0,0,1.86-5.56,4.78,4.78,0,0,0,0-.79A8.51,8.51,0,0,1,160.39,129.76Z"/><path class="cls-41" d="M167.67,110.45l.2-1.22a11,11,0,0,1,3.75,6.16c0,.26.1.5.13.75C171.11,112.82,167.67,110.45,167.67,110.45Z"/><path class="cls-42" d="M153.49,79.15l0,.06s-1.63-3.27-4-.46a.08.08,0,0,0,0,0c.34-1.6,1.1-2.72,2-2.72S153.21,77.32,153.49,79.15Z"/><path class="cls-2" d="M150.61,95.22l-.26.54h0l-.33.67a12.27,12.27,0,0,0-4.83,3.25l0,0a2.57,2.57,0,0,0-.66,1.19c-.19,1.22,1.74,1.35,1.74,1.35l-.16.33L144.84,105a2.4,2.4,0,0,1-1.18-.12c-.69-.28-1.3-1.08-.57-3.25a.86.86,0,0,1,.07-.21,8.34,8.34,0,0,1,4.89-5.21Z"/><path class="cls-43" d="M150.34,95.76l-.33.67a12.27,12.27,0,0,0-4.83,3.25,9.92,9.92,0,0,1,1.25-1.54A9.66,9.66,0,0,1,150.34,95.76Z"/><path class="cls-44" d="M156.47,72.23c0,.22-.05.35-.05.35-6.28-11.44-9.65-1.27-9.65-1.27q-.09-.9-.09-1.65h0c.95-2.61,2.64-4.35,4.57-4.35C153.76,65.3,155.87,68.25,156.47,72.23Z"/><path class="cls-45" d="M179.92,45.85A43.06,43.06,0,0,1,172.66,52c-13.42,7.77-15.83,18.18-16.19,20.21a12.41,12.41,0,0,0-.25-1.27c.87-5.47,4.67-12,10.71-17.38A36.78,36.78,0,0,1,179.92,45.85Z"/><path class="cls-46" d="M185.37,33.25c-.79,4.33-4.09,9.7-9.2,14.31a32.78,32.78,0,0,1-11.12,6.81,45.77,45.77,0,0,1,6.88-5.55c11.92-6.94,13.42-15.72,13.42-15.72A.77.77,0,0,1,185.37,33.25Z"/><path class="cls-2" d="M178.44,191.82l-.26-.26-.25.26-.86.85,1.11,1.12,1.12-1.12Zm-.26,1.79-.25-.25-.68-.69.93-.93.26.26.68.67Z"/><path class="cls-2" d="M178.44,191.63l-.26-.25-1.29,1.29,1,1.05.13.13.11.11v0l0,0,.11-.11,1.18-1.18Zm-.26.11.26.26.68.67-.94.94-.25-.25-.68-.69Z"/><polygon class="cls-2" points="179.49 195.24 178.44 196.28 178.18 196.54 177.93 196.28 176.89 195.24 177.93 194.2 178.17 193.96 178.18 193.94 178.2 193.96 178.44 194.2 179.49 195.24"/><rect class="cls-2" x="178.06" y="193.61" width="0.26" height="2.73"/><polygon class="cls-2" points="178.31 193.49 178.31 193.85 178.2 193.96 178.18 193.98 178.17 193.96 178.06 193.85 178.06 193.49 178.18 193.61 178.31 193.49"/><path class="cls-2" d="M178.18,193.61l-.25-.25v.36l.13.13.11.11v0l0,0,.11-.11.13-.13v-.36Z"/><polygon class="cls-2" points="178.44 193.72 178.44 196.28 178.25 196.47 178.12 196.47 177.93 196.28 177.93 193.72 178.06 193.85 178.17 193.96 178.18 193.98 178.2 193.96 178.31 193.85 178.44 193.72"/><path class="cls-2" d="M141.33,191.82l-.26-.26-.25.26-.86.85,1.11,1.12,1.12-1.12Zm-.26,1.79-.25-.25-.68-.69.93-.93.26.26.68.67-.68.69Z"/><path class="cls-2" d="M141.33,191.63l-.26-.25-1.29,1.29,1,1.05.13.13.11.11v0l.26-.26,1-1.05Zm-.26,2-.25-.25-.68-.69.93-.93.26.26.68.67-.68.69Z"/><polygon class="cls-2" points="142.37 195.24 141.33 196.28 141.14 196.47 141.07 196.54 140.82 196.28 139.78 195.24 140.82 194.2 140.95 194.07 141.06 193.96 141.07 193.94 141.09 193.96 141.2 194.07 141.33 194.2 142.37 195.24"/><path class="cls-2" d="M159.63,193.94l-1.12,1.11,1.12,1.12,1.12-1.12Zm0,2.05-.13-.13-.81-.81.69-.67.25-.26.93.93-.8.81Z"/><path class="cls-2" d="M159.89,194l-.26-.25-1.3,1.29,1.17,1.18.11.11h0v0l0,0h0l.11-.11,1.17-1.18Zm-1.2,1,.69-.67.25-.26.93.93-.8.81-.13.13-.13-.13Z"/><rect class="cls-2" x="158.71" y="196.7" width="1.84" height="1.84" transform="translate(186.49 -54.99) rotate(45)"/><polyline class="cls-2" points="159.63 198.79 159.63 196.36 159.63 196.32 159.63 196.17 159.63 195.99"/><polygon class="cls-2" points="159.63 195.99 159.76 195.87 159.76 198.79 159.5 198.79 159.5 195.87 159.63 195.99"/><path class="cls-2" d="M23.92,128.24v-5.06l-1.22.57v4.49a2.57,2.57,0,0,1-2.6,2.53h-.6l.6,1.18A3.76,3.76,0,0,0,23.92,128.24Z"/><path class="cls-2" d="M32.19,131.84a.41.41,0,0,0,.59,0l0,0,.53-.5a.5.5,0,0,0,0-.63l-.53-.49a.44.44,0,0,0-.62,0h0l-.5.49a.44.44,0,0,0,0,.61l0,0Z"/><path class="cls-2" d="M40.29,131.86l0,0,.52-.5a.45.45,0,0,0,0-.63l-.52-.49a.44.44,0,0,0-.62,0h0l-.53.49a.47.47,0,0,0,0,.63l.53.5A.41.41,0,0,0,40.29,131.86Z"/><path class="cls-2" d="M44.67,130.71l-.49-.49a.5.5,0,0,0-.65,0l-.49.49a.43.43,0,0,0,0,.61l0,0,.49.5a.47.47,0,0,0,.64,0h0l.49-.5a.42.42,0,0,0,0-.61Z"/><polygon class="cls-2" points="53.34 128.22 53.95 127.62 53.95 122.59 52.74 123.16 52.74 127.04 45.93 127.04 45.93 122.59 44.72 123.16 44.72 127.04 36.52 127.04 36.52 122.59 35.32 123.16 35.32 127.04 28.5 127.04 28.5 127.06 27.15 127.06 27.15 117.75 25.93 118.33 25.93 127.64 26.54 128.24 28.5 128.24 28.5 128.22 35.92 128.22 36.51 127.64 36.51 128.22 45.32 128.22 45.93 127.63 45.93 128.22 53.34 128.22"/><path class="cls-2" d="M49.62,130.22h0l-.49.49a.42.42,0,0,0,0,.61l0,0,.49.5a.41.41,0,0,0,.59,0l0,0,.53-.5a.47.47,0,0,0,0-.63l-.53-.49A.44.44,0,0,0,49.62,130.22Z"/><path class="cls-2" d="M64.76,128.24h2.47v.49a2.55,2.55,0,0,1-2.59,2.54h-1l.81,1.18h.2a3.76,3.76,0,0,0,3.81-3.71h0v-.51h8.79l.61-.6v-5l-1.2.57V127h-8.2v-2.13A3.39,3.39,0,0,0,65,121.56h0a3.34,3.34,0,0,0-.25,6.68Zm.38-5.51a2.14,2.14,0,0,1,2.09,2.16V127H65a2.16,2.16,0,1,1,.13-4.31Z"/><path class="cls-2" d="M76.62,130.71l-.5-.49a.5.5,0,0,0-.65,0l-.49.49a.44.44,0,0,0,0,.62h0l.49.5a.47.47,0,0,0,.64,0h0l.5-.5a.44.44,0,0,0,0-.61Z"/><path class="cls-2" d="M71.63,130.22h0l-.52.49a.45.45,0,0,0,0,.63l.52.5a.41.41,0,0,0,.59,0l0,0,.53-.5a.5.5,0,0,0,0-.63l-.53-.49A.44.44,0,0,0,71.63,130.22Z"/><polygon class="cls-2" points="85.89 127.62 85.89 122.59 84.67 123.16 84.67 127.04 77.87 127.04 77.87 128.22 85.28 128.22 85.89 127.62"/><path class="cls-2" d="M81.54,130.22l-.49.49a.44.44,0,0,0,0,.62h0l.49.5a.44.44,0,0,0,.61,0l0,0,.52-.5a.5.5,0,0,0,0-.63l-.52-.49A.45.45,0,0,0,81.54,130.22Z"/><path class="cls-2" d="M20.8,147.8h-.08a1.14,1.14,0,0,1-1-1.18,1.22,1.22,0,0,1,1.05-1.25,1.07,1.07,0,0,1,.67.26l.09-.09a1.2,1.2,0,0,0-.8-.31h-.11a1.4,1.4,0,0,0-1.45,1.34v0A1.35,1.35,0,0,0,20.52,148h.05a1.44,1.44,0,0,0,1-.43l-.1-.09A1.27,1.27,0,0,1,20.8,147.8Z"/><path class="cls-2" d="M24.7,145.22h-.08a1.38,1.38,0,0,0-1.48,1.29v.07a1.49,1.49,0,1,0,3,0A1.4,1.4,0,0,0,24.7,145.22Zm-.08,2.64c-.57,0-.91-.68-.9-1.32s.27-1.22.9-1.22.9.72.91,1.22S25.17,147.86,24.62,147.86Z"/><path class="cls-2" d="M29.37,146.52h0c-.26-.12-.52-.15-.89-.29-.68-.27-.38-.83.21-.83a1.52,1.52,0,0,1,.9.25l.09-.1a1.51,1.51,0,0,0-1-.3,1.28,1.28,0,0,0-.55.1.69.69,0,0,0-.41.89.73.73,0,0,0,.36.39c.36.2.9.23,1.21.5a.31.31,0,0,1,0,.44.76.76,0,0,1-.56.17,1.83,1.83,0,0,1-1-.3l-.09.13a1.77,1.77,0,0,0,1.13.38,1.62,1.62,0,0,0,.66-.13.71.71,0,0,0,0-1.31Z"/><path class="cls-2" d="M34.61,145.25v0a1.16,1.16,0,0,0-.92.43,1,1,0,0,0-.88-.43,1.22,1.22,0,0,0-.85.34l-.11-.28h-.4v2.61H32v-2.15a.91.91,0,0,1,.71-.34c.32,0,.63.27.61,1v1.51h.53v-1.48a1.48,1.48,0,0,0-.08-.63.91.91,0,0,1,.74-.38c.32,0,.63.27.61,1v1.51h.54v-1.48C35.68,145.52,35.13,145.25,34.61,145.25Z"/><path class="cls-2" d="M40.12,146.23a1.21,1.21,0,0,0-1.29-1,1.3,1.3,0,0,0-1.33,1.29v.06A1.27,1.27,0,0,0,38.71,148h.13a1.57,1.57,0,0,0,1.2-.54l-.11-.07a1.11,1.11,0,0,1-.84.42,1,1,0,0,1-1-1h2a1.35,1.35,0,0,0,0-.49Zm-.47.35H38.11c-.06-.74.35-1.18.76-1.18S39.72,145.83,39.65,146.58Z"/><path class="cls-2" d="M42.85,147.82c-.43,0-.56-.33-.56-1V145.5h.63v-.21h-.63v-.91H41.8v2.39c0,.93.49,1.18,1,1.18a1,1,0,0,0,.71-.24l-.12-.13A.71.71,0,0,1,42.85,147.82Z"/><path class="cls-2" d="M45.5,144.21h0a.33.33,0,0,0-.32.31h0a.34.34,0,0,0,.31.33.33.33,0,0,0,.33-.31A.32.32,0,0,0,45.5,144.21Z"/><rect class="cls-2" x="45.25" y="145.29" width="0.49" height="2.61"/><path class="cls-2" d="M49,147.8h-.09a1.15,1.15,0,0,1-1-1.18A1.23,1.23,0,0,1,49,145.37a1.1,1.1,0,0,1,.67.26l.09-.09a1.18,1.18,0,0,0-.8-.31h-.11a1.4,1.4,0,0,0-1.45,1.35v0A1.35,1.35,0,0,0,48.74,148h0a1.45,1.45,0,0,0,1-.43l-.1-.09A1.16,1.16,0,0,1,49,147.8Z"/><polygon class="cls-2" points="53.01 146.52 53.02 146.53 53.02 146.53 53.01 146.52"/><path class="cls-2" d="M53,146.53c-.26-.12-.53-.15-.89-.29-.69-.27-.38-.83.21-.83a1.54,1.54,0,0,1,.89.25l.1-.1a1.55,1.55,0,0,0-1-.3,1.21,1.21,0,0,0-.56.1.68.68,0,0,0-.4.89.66.66,0,0,0,.36.39c.35.2.9.23,1.2.5a.31.31,0,0,1,0,.44.76.76,0,0,1-.56.17,1.78,1.78,0,0,1-1-.3l-.09.13a1.73,1.73,0,0,0,1.12.38,1.7,1.7,0,0,0,.67-.13.71.71,0,0,0,.35-.94A.64.64,0,0,0,53,146.53Z"/><rect class="cls-2" x="57.65" y="145.29" width="0.49" height="2.61"/><path class="cls-2" d="M57.89,144.21a.32.32,0,0,0-.32.31h0a.33.33,0,0,0,.31.32.32.32,0,0,0,0-.63Z"/><path class="cls-2" d="M61.74,145.23a1.13,1.13,0,0,0-.32,0v0a1.49,1.49,0,0,0-1,.34l-.11-.31H60v2.63h.51v-2.15a1.17,1.17,0,0,1,.83-.34c.32,0,.7.27.68,1v1.49h.54V146.4A1,1,0,0,0,61.74,145.23Z"/><path class="cls-2" d="M66.41,145.51a1.27,1.27,0,0,0-.78-.25,1.35,1.35,0,0,0-1.43,1.26v.15a1.37,1.37,0,0,0,2.24,1l.1.23H67v-3.66l-.54,0Zm0,2a.88.88,0,0,1-.65.26,1,1,0,0,1-1-1v-.09c0-1,.57-1.27,1.06-1.27a.88.88,0,0,1,.6.21Z"/><path class="cls-2" d="M70.74,147.41a1,1,0,0,1-.74.33c-.41,0-.79-.28-.77-1v-1.48h-.55v1.46a1.07,1.07,0,0,0,.94,1.17h.21a1.31,1.31,0,0,0,.92-.35l.11.33h.4v-2.61l-.52,0Z"/><path class="cls-2" d="M74.68,146.52h0c-.26-.12-.53-.15-.89-.29-.69-.27-.38-.83.21-.83a1.54,1.54,0,0,1,.89.25l.1-.1a1.51,1.51,0,0,0-1-.3,1.19,1.19,0,0,0-.55.1.69.69,0,0,0-.41.89.72.72,0,0,0,.36.39c.36.2.9.23,1.21.5a.31.31,0,0,1,0,.44.78.78,0,0,1-.57.17,1.82,1.82,0,0,1-1-.3l-.08.13a1.67,1.67,0,0,0,1.12.38,1.7,1.7,0,0,0,.67-.13.71.71,0,0,0,.35-.94A.74.74,0,0,0,74.68,146.52Z"/><path class="cls-2" d="M77.8,147.82c-.43,0-.55-.33-.55-1V145.5h.63v-.21h-.63v-.91h-.49v2.39c0,.93.49,1.18,1,1.18a1,1,0,0,0,.71-.24l-.13-.13A.71.71,0,0,1,77.8,147.82Z"/><path class="cls-2" d="M81.46,145.28a1,1,0,0,0-.95.53v-.23l-.15-.28H80v2.6h.53V146a.91.91,0,0,1,.79-.36.58.58,0,0,1,.29,0c0-.13.06-.25.08-.37h-.22Z"/><path class="cls-2" d="M85.73,145.3l-1,2.28-1-2.28h-.49L84.44,148h.09l-.24.54c-.14.25-.28.33-.41.33a.62.62,0,0,1-.37-.2c0,.06-.11.17-.14.24a1,1,0,0,0,.56.23.49.49,0,0,0,.46-.32l1.55-3.54Z"/><path class="cls-2" d="M27.67,139.43a2.35,2.35,0,0,0-.56-.77,2.86,2.86,0,0,0-.85-.52,4.9,4.9,0,0,0-1.06-.29h0a2.52,2.52,0,0,0,.78-.32,3.16,3.16,0,0,0,.62-.53,2.22,2.22,0,0,0,.4-.68,2.39,2.39,0,0,0,.14-.79,1.92,1.92,0,0,0-.35-1.06,2.43,2.43,0,0,0-.95-.76,3.61,3.61,0,0,0-.84-.28,6.36,6.36,0,0,0-1.07-.11H20.07v10h3.54l1,0c.23,0,.47-.05.7-.09a3.51,3.51,0,0,0,1.87-.91,2.43,2.43,0,0,0,.7-1.81A2.5,2.5,0,0,0,27.67,139.43ZM21,133.55h2.76a4.19,4.19,0,0,1,1,.12,2.55,2.55,0,0,1,.82.38,2,2,0,0,1,.56.62,1.8,1.8,0,0,1,.19.91,2.1,2.1,0,0,1-.2.82,2.32,2.32,0,0,1-.49.7,2.5,2.5,0,0,1-.71.49,1.88,1.88,0,0,1-.81.18H21Zm6,7.2a2.44,2.44,0,0,1-.3.91,2.16,2.16,0,0,1-.69.75,2.75,2.75,0,0,1-1.06.44,8.79,8.79,0,0,1-1.35.2,13.48,13.48,0,0,1-1.41,0H21l0-5.1h3.33a3.31,3.31,0,0,1,1.27.32,2.61,2.61,0,0,1,.87.65,2.26,2.26,0,0,1,.58,1.78Z"/><rect class="cls-2" x="29.39" y="133.3" width="0.88" height="10.04"/><path class="cls-2" d="M41.67,136.37a5.46,5.46,0,0,0-1.1-1.59A5.28,5.28,0,0,0,37,133.31h0a5.28,5.28,0,0,0-3.65,1.47,5.27,5.27,0,0,0-1.1,1.59,4.92,4.92,0,0,0,0,3.91,5.1,5.1,0,0,0,2.74,2.66,5.26,5.26,0,0,0,4,0,5.13,5.13,0,0,0,2.74-2.66A4.92,4.92,0,0,0,41.67,136.37Zm-.63,3.9a4.33,4.33,0,0,1-.85,1.45,3.77,3.77,0,0,1-1.38,1h0a3.56,3.56,0,0,1-1.67.29,4.24,4.24,0,0,1-1.64-.43,4.76,4.76,0,0,1-1.45-1.06A5.66,5.66,0,0,1,32.57,138a5.12,5.12,0,0,1,.24-1.74,4.12,4.12,0,0,1,.85-1.46,3.76,3.76,0,0,1,3-1.23,4.34,4.34,0,0,1,1.65.43,5.08,5.08,0,0,1,1.43,1.05,5.28,5.28,0,0,1,1,1.6,5.06,5.06,0,0,1,.44,1.83A5,5,0,0,1,41,140.27Z"/><path class="cls-2" d="M53.41,138.66a2.86,2.86,0,0,0-.85-.52,5.35,5.35,0,0,0-1-.29,2.53,2.53,0,0,0,.76-.31,3.16,3.16,0,0,0,.62-.53,2.22,2.22,0,0,0,.4-.68,2.39,2.39,0,0,0,.14-.79,1.92,1.92,0,0,0-.35-1.06,2.45,2.45,0,0,0-.91-.78,3.38,3.38,0,0,0-.83-.28,6.59,6.59,0,0,0-1.08-.11H46.4v10h3.53l1,0c.23,0,.47-.05.7-.09a3.51,3.51,0,0,0,1.87-.91,2.43,2.43,0,0,0,.7-1.81,2.5,2.5,0,0,0-.2-1A2.67,2.67,0,0,0,53.41,138.66Zm-6.1-5.09h2.76a4,4,0,0,1,1,.12,2.51,2.51,0,0,1,.83.38,1.85,1.85,0,0,1,.56.62,1.78,1.78,0,0,1,.19.91,2.1,2.1,0,0,1-.2.82,2.3,2.3,0,0,1-.5.7,2.45,2.45,0,0,1-.7.49,1.88,1.88,0,0,1-.81.18H47.28Zm6,7.2a2.44,2.44,0,0,1-.3.91,2.19,2.19,0,0,1-.7.75,2.75,2.75,0,0,1-1.06.44,8.79,8.79,0,0,1-1.35.2,13.48,13.48,0,0,1-1.41.05H47.28V138H50.6a3.71,3.71,0,0,1,1.27.32,2.8,2.8,0,0,1,.87.65,2.26,2.26,0,0,1,.5.86A2.24,2.24,0,0,1,53.32,140.77Z"/><rect class="cls-2" x="55.69" y="133.3" width="0.88" height="10.04"/><path class="cls-2" d="M65.86,140.47a2.5,2.5,0,0,0-.2-1,2.35,2.35,0,0,0-.56-.77,2.74,2.74,0,0,0-.85-.52,5.26,5.26,0,0,0-1-.29,2.77,2.77,0,0,0,.76-.31,3.1,3.1,0,0,0,.61-.53,2,2,0,0,0,.4-.68,2.16,2.16,0,0,0,.14-.79,2,2,0,0,0-.34-1.06,2.53,2.53,0,0,0-.91-.78,3.61,3.61,0,0,0-.84-.28,6.48,6.48,0,0,0-1.08-.11H58.09v10h3.54l1,0c.24,0,.47-.05.7-.09a3.47,3.47,0,0,0,1.87-.91A2.39,2.39,0,0,0,65.86,140.47Zm-5.19-6.9h1.09a4.13,4.13,0,0,1,1,.12,2.71,2.71,0,0,1,.83.38,1.73,1.73,0,0,1,.55.62,1.79,1.79,0,0,1,.2.91,2,2,0,0,1-.21.82,2.11,2.11,0,0,1-.49.7,2.45,2.45,0,0,1-.7.49,1.91,1.91,0,0,1-.81.18H59l0-4.22Zm4.33,7.2a2.44,2.44,0,0,1-.3.91,2.23,2.23,0,0,1-.68.75,2.75,2.75,0,0,1-1.06.44,8.92,8.92,0,0,1-1.36.2,13.38,13.38,0,0,1-1.41.05H59l0-5.1h3.32a3.31,3.31,0,0,1,1.27.32,2.52,2.52,0,0,1,.87.65,2.15,2.15,0,0,1,.5.85A2.25,2.25,0,0,1,65,140.77Z"/><path class="cls-2" d="M71.34,133.33l-4.26,10h1l1.34-3.19h5.38c.2.52.36,1,.49,1.38s.23.71.32,1l.21.82h.78l-4.24-10Zm-1.86,6.57,2.63-6.16,2.53,6.16Z"/><path class="cls-2" d="M84.29,141.87a9.55,9.55,0,0,1,.47,1.49h.9a5.77,5.77,0,0,0-.34-1.36,5.39,5.39,0,0,0-.62-1.19,4.78,4.78,0,0,0-.86-1,5,5,0,0,0-1-.68,2.8,2.8,0,0,0,1.1-.25,3.06,3.06,0,0,0,.91-.64,2.8,2.8,0,0,0,.61-.91,3,3,0,0,0,.23-1.11,2.51,2.51,0,0,0-.4-1.36,3,3,0,0,0-1-1,2.8,2.8,0,0,0-.73-.32,5.82,5.82,0,0,0-.85-.18,9.46,9.46,0,0,0-1.07-.06H78.06v10h.88v-4.21h2.19a3.28,3.28,0,0,1,1.35.49,4.57,4.57,0,0,1,1.06,1A5.31,5.31,0,0,1,84.29,141.87Zm-2.58-3-2.77,0v-5.32h3a4,4,0,0,1,.77.09,3.51,3.51,0,0,1,.64.24,2.35,2.35,0,0,1,1.05,1,2.83,2.83,0,0,1,.33,1.37,2.61,2.61,0,0,1-.23,1,2.26,2.26,0,0,1-.59.82,2.64,2.64,0,0,1-.94.56A3.83,3.83,0,0,1,81.71,138.89Z"/></g></g></g></svg>