<svg xmlns="http://www.w3.org/2000/svg" viewBox="0 0 8.33 8.33"><defs><style>.cls-1{fill:#283318;}.cls-2{fill:none;stroke:#283318;stroke-miterlimit:10;stroke-width:0.5px;}</style></defs><title>phone</title><g id="Layer_2" data-name="Layer 2"><g id="Layer_1-2" data-name="Layer 1"><path class="cls-1" d="M2,2.54a.48.48,0,0,1,.14-.34A.46.46,0,0,1,2.53,2h.68a.49.49,0,0,1,.49.45,2.33,2.33,0,0,0,.1.44.52.52,0,0,1-.13.5l-.27.27A3.08,3.08,0,0,0,4.64,4.93l.27-.27a.52.52,0,0,1,.5-.13,2.33,2.33,0,0,0,.44.1.49.49,0,0,1,.45.49V5.8a.46.46,0,0,1-.17.36.45.45,0,0,1-.38.13,4,4,0,0,1-1.39-.38,4.27,4.27,0,0,1-1.14-.8A4.27,4.27,0,0,1,2.42,4,4,4,0,0,1,2,2.58a.06.06,0,0,1,0,0m1.45.52V3a2.78,2.78,0,0,1-.11-.5.16.16,0,0,0-.16-.14H2.53a.18.18,0,0,0-.12,0,.16.16,0,0,0,0,.13A3.76,3.76,0,0,0,5.78,6a.16.16,0,0,0,.13,0A.18.18,0,0,0,6,5.8V5.12A.16.16,0,0,0,5.82,5a2.78,2.78,0,0,1-.5-.11.17.17,0,0,0-.17,0l-.44.45L4.6,5.28A3.42,3.42,0,0,1,3.05,3.73L3,3.62l.45-.44a.16.16,0,0,0,0-.12"/><path class="cls-1" d="M4.17,8A3.88,3.88,0,1,1,8,4.16,3.88,3.88,0,0,1,4.17,8M4.17.5A3.67,3.67,0,1,0,7.83,4.16,3.66,3.66,0,0,0,4.17.5"/><path class="cls-2" d="M4.17,8A3.88,3.88,0,1,1,8,4.16,3.88,3.88,0,0,1,4.17,8ZM4.17.5A3.67,3.67,0,1,0,7.83,4.16,3.66,3.66,0,0,0,4.17.5Z"/><path class="cls-1" d="M4.17,8.08A3.92,3.92,0,1,1,8.08,4.16,3.93,3.93,0,0,1,4.17,8.08m0-7.75A3.84,3.84,0,1,0,8,4.16,3.84,3.84,0,0,0,4.17.33m0,7.54a3.71,3.71,0,1,1,3.7-3.71,3.71,3.71,0,0,1-3.7,3.71m0-7.33A3.63,3.63,0,1,0,7.79,4.16,3.63,3.63,0,0,0,4.17.54"/><path class="cls-2" d="M4.17,8.08A3.92,3.92,0,1,1,8.08,4.16,3.93,3.93,0,0,1,4.17,8.08Zm0-7.75A3.84,3.84,0,1,0,8,4.16,3.84,3.84,0,0,0,4.17.33Zm0,7.54a3.71,3.71,0,1,1,3.7-3.71A3.71,3.71,0,0,1,4.17,7.87Zm0-7.33A3.63,3.63,0,1,0,7.79,4.16,3.63,3.63,0,0,0,4.17.54Z"/></g></g></svg>