<svg xmlns="http://www.w3.org/2000/svg" viewBox="0 0 239.99 27.07"><defs><style>.cls-1{fill:#e3bf22;}</style></defs><title>slogan</title><g id="Layer_2" data-name="Layer 2"><g id="Layer_1-2" data-name="Layer 1"><path class="cls-1" d="M2,19.81v1.75H0V19.81Zm4.88,0v1.75h-2V19.81Zm4.88,0v1.75h-2V19.81Zm4.88,0v1.75h-2V19.81Zm4.88,0v1.75h-2V19.81Zm4.88,0v1.75h-2V19.81Zm4.88,0v1.75h-2V19.81Zm6.59,1.75V19.81H35.91V6.07l-1.74.84V20.69l.87.87Zm9.78-7.5,1.74-.84v7.47l-.87.87H37.84V19.81h9.79Zm-2.79-2.87a.66.66,0,0,0,0-.91l-.73-.72a.65.65,0,0,0-.93,0l-.72.72a.63.63,0,0,0,0,.91l.75.72a.64.64,0,0,0,.9,0Zm8.44-5.84V4.82c0-.75.84-1.13,1.65-1.13l.38-.84L53.83,1h1.6l-.59-1H52.75l-.38.81,1.6,2a3.13,3.13,0,0,0-.84.41,1.92,1.92,0,0,0-.87,1.62Zm1.88,15.36V6.07l-1.74.84V21.56Zm9.53.85A4.91,4.91,0,0,0,66.92,21a4.59,4.59,0,0,0,1.66-1.42A3.77,3.77,0,0,0,69.22,18,4.15,4.15,0,0,0,69,16.12a9.16,9.16,0,0,0-2.44-3.66,7.42,7.42,0,0,0-5-1.74l-.73.38-2.26,3.37,2,.2L62,12.46c2.5.18,4.28,1.6,5.32,4.3a2,2,0,0,1-.17,1.86,3.05,3.05,0,0,1-2.47,1.19H58.32l.85,1.75Zm13.62-7.5,1.74-.84v7.47l-.87.87H68.52V19.81h9.79Zm-5.2,11.16a.64.64,0,0,0,0,.93l.72.72a.6.6,0,0,0,.9,0l.76-.72a.71.71,0,0,0,0-.93l-.76-.73a.62.62,0,0,0-.9,0Zm37.56-3.66.87-.87V13.22l-1.74.84v5.75H96.29a4.94,4.94,0,0,1-2.61-.69,1.84,1.84,0,0,1-.88-1.31V14l-1.74.85v2.93a3.32,3.32,0,0,0,1.66,2.76,6.49,6.49,0,0,0,3.57,1ZM100.1,25.22a.64.64,0,0,0,0,.93l.72.72a.69.69,0,0,0,.93,0l.73-.72a.65.65,0,0,0,0-.93l-.73-.73a.65.65,0,0,0-.93,0Zm17.42-3.66.87-.87V6.07l-1.74,1.14v12.6h-5.11v1.75Zm6.43,0,13.92-2.65.73-.84V15.83l-.44-.75L129.5,10l-.43-.11a4.94,4.94,0,0,0-3.9,7.93l1.92-.38-.52-.7a3.07,3.07,0,0,1-.67-1.94,3.18,3.18,0,0,1,2.93-3.17l8,4.71v1l-13.13,2.47H118.4v1.75Zm36.08,0A4.93,4.93,0,1,1,165,16.62v4.94a5.08,5.08,0,0,1-2.06,3.31,7.57,7.57,0,0,1-4.62,1.48h-2A8.24,8.24,0,0,1,151.72,25a5.31,5.31,0,0,1-1.48-1.56,3.69,3.69,0,0,1-.61-2V18.83l1.74-1.17v3.75a2.69,2.69,0,0,0,1.34,2.15,6.34,6.34,0,0,0,3.6,1.05h2a5.88,5.88,0,0,0,3.57-1.14,3.35,3.35,0,0,0,1.31-1.91ZM156.52,7.29a.69.69,0,0,1,0-.93l.72-.72a.64.64,0,0,1,.93,0l.73.72a.65.65,0,0,1,0,.93l-.73.73a.65.65,0,0,1-.93,0Zm6.71,9.33a3.19,3.19,0,1,0-3.2,3.19h3.2Zm-3.37-9.33a.64.64,0,0,1,0-.93l.72-.72a.64.64,0,0,1,.93,0l.73.72a.65.65,0,0,1,0,.93l-.73.73a.65.65,0,0,1-.93,0Zm14.91,6.77,1.74-.84v7.47l-.87.87H165V19.81h9.79Zm-5.2,11.16a.65.65,0,0,0,0,.93l.73.72a.6.6,0,0,0,.9,0l.75-.72a.69.69,0,0,0,0-.93l-.75-.73a.62.62,0,0,0-.9,0Zm16.51-5.41h6.19l-1.17,1.75H176.52V19.81h7.09l-1.28-1.27a4.93,4.93,0,1,1,7-7,4.77,4.77,0,0,1,1.4,2.88l.11.87L189,14.67a3,3,0,0,0-.93-1.86,3.13,3.13,0,0,0-4.47,0,3.18,3.18,0,0,0,0,4.51ZM217,27.05a5.51,5.51,0,0,0,5.5-5.49V14.21l-1.75,1.16v6.19A3.75,3.75,0,0,1,217,25.3h-6.21A5.67,5.67,0,0,1,205,19.73v-2.5l-1.75,1.16v1.34a7.18,7.18,0,0,0,2.21,5.17,7.55,7.55,0,0,0,5.32,2.15Zm-.63-13.71a.63.63,0,0,0,0-.91l-.73-.75a.71.71,0,0,0-.93,0l-.73.75a.63.63,0,0,0,0,.91l.73.75a.71.71,0,0,0,.93,0ZM231.57,21l1.16.58a5.92,5.92,0,0,0,2.35.81,4.93,4.93,0,0,0,0-9.85H231l-.88.87v6.39H222.5v1.75H231Zm.32-6.72h3.19a3.19,3.19,0,0,1,0,6.37,17.43,17.43,0,0,1-3.19-1.46Z"/></g></g></svg>