<svg xmlns="http://www.w3.org/2000/svg" viewBox="0 0 9.95 9.95"><defs><style>.cls-1{fill:#283318;}</style></defs><title>telegram</title><g id="Layer_2" data-name="Layer 2"><g id="Layer_1-2" data-name="Layer 1"><polygon class="cls-1" points="4.02 6.44 3.96 5.71 6.29 3.67 3.49 5.36 4.02 6.44"/><path class="cls-1" d="M5,0a5,5,0,1,0,5,5A5,5,0,0,0,5,0ZM6.29,6.91A.33.33,0,0,1,6,7.16a.32.32,0,0,1-.2-.07L4.69,6.27,4,6.83H4a.08.08,0,0,1-.07,0h0l-.7-1.4L2.06,5a.16.16,0,0,1,0-.3l5-1.9h.06a.15.15,0,0,1,.15.2Z"/></g></g></svg>