<svg xmlns="http://www.w3.org/2000/svg" viewBox="0 0 8.33 8.33"><defs><style>.cls-1{fill:#283318;}.cls-2{fill:none;stroke:#283318;stroke-miterlimit:10;stroke-width:0.5px;}</style></defs><title>time</title><g id="Layer_2" data-name="Layer 2"><g id="Layer_1-2" data-name="Layer 1"><path class="cls-1" d="M4.17,8A3.88,3.88,0,1,1,8,4.16,3.88,3.88,0,0,1,4.17,8M4.17.5A3.67,3.67,0,1,0,7.83,4.16,3.66,3.66,0,0,0,4.17.5"/><path class="cls-2" d="M4.17,8A3.88,3.88,0,1,1,8,4.16,3.88,3.88,0,0,1,4.17,8ZM4.17.5A3.67,3.67,0,1,0,7.83,4.16,3.66,3.66,0,0,0,4.17.5Z"/><path class="cls-1" d="M4.17,8.08A3.92,3.92,0,1,1,8.08,4.16,3.93,3.93,0,0,1,4.17,8.08m0-7.75A3.84,3.84,0,1,0,8,4.16,3.84,3.84,0,0,0,4.17.33m0,7.54a3.71,3.71,0,1,1,3.7-3.71,3.71,3.71,0,0,1-3.7,3.71m0-7.33A3.63,3.63,0,1,0,7.79,4.16,3.63,3.63,0,0,0,4.17.54"/><path class="cls-2" d="M4.17,8.08A3.92,3.92,0,1,1,8.08,4.16,3.93,3.93,0,0,1,4.17,8.08Zm0-7.75A3.84,3.84,0,1,0,8,4.16,3.84,3.84,0,0,0,4.17.33Zm0,7.54a3.71,3.71,0,1,1,3.7-3.71A3.71,3.71,0,0,1,4.17,7.87Zm0-7.33A3.63,3.63,0,1,0,7.79,4.16,3.63,3.63,0,0,0,4.17.54Z"/><path class="cls-1" d="M3,5.42a.11.11,0,0,1-.08,0,.11.11,0,0,1,0-.15l.94-.89A.11.11,0,0,1,4,4.5L3,5.39a.11.11,0,0,1-.07,0"/><path class="cls-2" d="M3,5.42a.11.11,0,0,1-.08,0,.11.11,0,0,1,0-.15l.94-.89A.11.11,0,0,1,4,4.5L3,5.39A.11.11,0,0,1,3,5.42Z"/><path class="cls-1" d="M3,5.46a.16.16,0,0,1-.11,0,.12.12,0,0,1,0-.1.14.14,0,0,1,0-.1l.93-.89a.12.12,0,0,1,.11,0,.21.21,0,0,1,.1,0,.21.21,0,0,1,0,.11.14.14,0,0,1,0,.1l-.94.89a.15.15,0,0,1-.09,0m.93-1.1a0,0,0,0,0,0,0l-.94.89a.05.05,0,0,0,0,0,.08.08,0,0,0,0,.05.06.06,0,0,0,.09,0l.94-.89a.06.06,0,0,0,0-.09l0,0Z"/><path class="cls-2" d="M3,5.46a.16.16,0,0,1-.11,0,.12.12,0,0,1,0-.1.14.14,0,0,1,0-.1l.93-.89a.12.12,0,0,1,.11,0,.21.21,0,0,1,.1,0,.21.21,0,0,1,0,.11.14.14,0,0,1,0,.1l-.94.89A.15.15,0,0,1,3,5.46Zm.93-1.1a0,0,0,0,0,0,0l-.94.89a.05.05,0,0,0,0,0,.08.08,0,0,0,0,.05.06.06,0,0,0,.09,0l.94-.89a.06.06,0,0,0,0-.09l0,0Z"/><path class="cls-1" d="M4.17,3.9a.11.11,0,0,1-.11-.11V1.37a.1.1,0,0,1,.11-.1.1.1,0,0,1,.1.1V3.79a.11.11,0,0,1-.1.11"/><path class="cls-2" d="M4.17,3.9a.11.11,0,0,1-.11-.11V1.37a.1.1,0,0,1,.11-.1.1.1,0,0,1,.1.1V3.79A.11.11,0,0,1,4.17,3.9Z"/><path class="cls-1" d="M4.17,3.94A.15.15,0,0,1,4,3.79V1.37a.15.15,0,0,1,.15-.14.14.14,0,0,1,.14.14V3.79a.15.15,0,0,1-.14.15m0-2.63a.07.07,0,0,0-.07.06V3.79a.07.07,0,0,0,.07.07.07.07,0,0,0,.06-.07V1.37a.06.06,0,0,0-.06-.06"/><path class="cls-2" d="M4.17,3.94A.15.15,0,0,1,4,3.79V1.37a.15.15,0,0,1,.15-.14.14.14,0,0,1,.14.14V3.79A.15.15,0,0,1,4.17,3.94Zm0-2.63a.07.07,0,0,0-.07.06V3.79a.07.07,0,0,0,.07.07.07.07,0,0,0,.06-.07V1.37A.06.06,0,0,0,4.17,1.31Z"/><path class="cls-1" d="M4.17,4.59a.43.43,0,1,1,0-.85.43.43,0,0,1,0,.85m0-.64A.21.21,0,0,0,4,4.16a.21.21,0,0,0,.21.22.22.22,0,0,0,0-.43"/><path class="cls-2" d="M4.17,4.59a.43.43,0,1,1,0-.85.43.43,0,0,1,0,.85Zm0-.64A.21.21,0,0,0,4,4.16a.21.21,0,0,0,.21.22.22.22,0,0,0,0-.43Z"/><path class="cls-1" d="M4.17,4.62a.45.45,0,0,1-.46-.46.46.46,0,0,1,.46-.46.47.47,0,0,1,.46.46.46.46,0,0,1-.46.46m0-.84a.39.39,0,0,0-.39.38.4.4,0,0,0,.39.39.39.39,0,0,0,.38-.39.38.38,0,0,0-.38-.38m0,.63a.25.25,0,0,1-.25-.25.25.25,0,0,1,.25-.25.26.26,0,0,1,.25.25.25.25,0,0,1-.25.25m0-.42A.18.18,0,0,0,4,4.16a.18.18,0,0,0,.18.18.18.18,0,0,0,.17-.18A.18.18,0,0,0,4.17,4"/><path class="cls-2" d="M4.17,4.62a.45.45,0,0,1-.46-.46.46.46,0,0,1,.46-.46.47.47,0,0,1,.46.46A.46.46,0,0,1,4.17,4.62Zm0-.84a.39.39,0,0,0-.39.38.4.4,0,0,0,.39.39.39.39,0,0,0,.38-.39A.38.38,0,0,0,4.17,3.78Zm0,.63a.25.25,0,0,1-.25-.25.25.25,0,0,1,.25-.25.26.26,0,0,1,.25.25A.25.25,0,0,1,4.17,4.41Zm0-.42A.18.18,0,0,0,4,4.16a.18.18,0,0,0,.18.18.18.18,0,0,0,.17-.18A.18.18,0,0,0,4.17,4Z"/></g></g></svg>